/* XPM */
static char *_158_a39fcf1cba0f05341ec83b3c742ec50949d6ad8136bda47eb0a6bde5a731f12e[] = {
/* columns rows colors chars-per-pixel */
"50 50 237 2 ",
"   c #121317",
".  c #1A1B1F",
"X  c #1C1B21",
"o  c #1B1C20",
"O  c #1A1E21",
"+  c #1B1F22",
"@  c #1C1D21",
"#  c #1E1F21",
"$  c #1D1C22",
"%  c #1C1D22",
"&  c #1E1D23",
"*  c #1D1E22",
"=  c #1D1E23",
"-  c #1F1E23",
";  c #1E1F23",
":  c #1F1E24",
">  c #1E1F24",
",  c #201F24",
"<  c #211E25",
"1  c #201F25",
"2  c #1F2022",
"3  c #1F2024",
"4  c #1F2025",
"5  c #202125",
"6  c #212226",
"7  c #232429",
"8  c #24252A",
"9  c #25262B",
"0  c #24242C",
"q  c #26272C",
"w  c #27282C",
"e  c #27282D",
"r  c #272A2F",
"t  c #28292D",
"y  c #28292E",
"u  c #2A292F",
"i  c #292A2E",
"p  c #292A2F",
"a  c #2A2B2F",
"s  c #2C2D2F",
"d  c #272A31",
"f  c #292931",
"g  c #282B30",
"h  c #2B2A30",
"j  c #2A2B30",
"k  c #282B32",
"l  c #2A2A32",
"z  c #2B2B33",
"x  c #2C2B30",
"c  c #2C2B31",
"v  c #292D30",
"b  c #292C31",
"n  c #2B2C30",
"m  c #2B2C31",
"M  c #2A2E31",
"N  c #292C33",
"B  c #2A2D32",
"V  c #292E32",
"C  c #2B2F32",
"Z  c #2B2E33",
"A  c #2A2F33",
"S  c #2D2C31",
"D  c #2C2D31",
"F  c #2E2F31",
"G  c #2D2C32",
"H  c #2C2D32",
"J  c #2E2D32",
"K  c #2E2D33",
"L  c #2D2E32",
"P  c #2D2E33",
"I  c #2F2E33",
"U  c #2E2F33",
"Y  c #2A2D34",
"T  c #2B2E35",
"R  c #2C2C34",
"E  c #2D2D35",
"W  c #2C2F34",
"Q  c #2F2E34",
"!  c #2E2F34",
"~  c #2E2E36",
"^  c #2F2F37",
"/  c #302F34",
"(  c #302F35",
")  c #2C3033",
"_  c #2B3034",
"`  c #2B3036",
"'  c #2D3134",
"]  c #2D3035",
"[  c #2F3034",
"{  c #2F3035",
"}  c #2D3037",
"|  c #2E3136",
" . c #2F3336",
".. c #2F3237",
"X. c #2E3138",
"o. c #2F3239",
"O. c #2E3339",
"+. c #2F3438",
"@. c #2F343A",
"#. c #313035",
"$. c #303135",
"%. c #313234",
"&. c #323335",
"*. c #313036",
"=. c #303136",
"-. c #323136",
";. c #323137",
":. c #313236",
">. c #313237",
",. c #333237",
"<. c #323337",
"1. c #333436",
"2. c #303038",
"3. c #313139",
"4. c #303338",
"5. c #333238",
"6. c #323338",
"7. c #30333A",
"8. c #33333B",
"9. c #343338",
"0. c #343339",
"q. c #313538",
"w. c #313439",
"e. c #303539",
"r. c #333438",
"t. c #333439",
"y. c #31343B",
"u. c #30353B",
"i. c #32353A",
"p. c #33363B",
"a. c #353439",
"s. c #343539",
"d. c #35343A",
"f. c #34353A",
"g. c #36353B",
"h. c #35363A",
"j. c #35363B",
"k. c #37363B",
"l. c #32353C",
"z. c #31363C",
"x. c #34373C",
"c. c #34393D",
"v. c #37383C",
"b. c #37383D",
"n. c #38393E",
"m. c #393A3E",
"M. c #3A3B40",
"N. c #3C3B40",
"B. c #3D3C41",
"V. c #3E3F41",
"C. c #3D3E42",
"Z. c #3F4044",
"A. c #414246",
"S. c #414247",
"D. c #47464B",
"F. c #47484C",
"G. c #494A4E",
"H. c #494A4F",
"J. c #4B4A4F",
"K. c #494C51",
"L. c #4B4C50",
"P. c #4E4F53",
"I. c #515256",
"U. c #535257",
"Y. c #555459",
"T. c #555658",
"R. c #575B5E",
"E. c #595A5E",
"W. c #5B5C60",
"Q. c #5D5E62",
"!. c #5E5F63",
"~. c #605F64",
"^. c #616266",
"/. c #626367",
"(. c #646569",
"). c #67686A",
"_. c #6A6A6C",
"`. c #6D6C71",
"'. c #6D6E72",
"]. c #6E6F73",
"[. c #78787A",
"{. c #838287",
"}. c #828387",
"|. c #838488",
" X c #878789",
".X c #85868A",
"XX c #8C8C8E",
"oX c #97969B",
"OX c #98979C",
"+X c #9B9A9F",
"@X c #9E9FA3",
"#X c #A4A3A8",
"$X c #A7A7A9",
"%X c #AAAAAC",
"&X c gray68",
"*X c #C0C1C3",
"=X c #C2C2C4",
"-X c #C3C3C5",
";X c #C2C1C6",
":X c #C9C9CB",
">X c #CCCCCE",
",X c #CDCDCF",
"<X c LightGray",
"1X c #D3D3D5",
"2X c #D4D5D7",
"3X c #D7D7D7",
"4X c #D7D8DA",
"5X c #DBDBDD",
"6X c #DBDCDE",
"7X c #DCDCDE",
"8X c #DFDFE1",
"9X c #E4E4E4",
"0X c #E4E4E6",
"qX c #E6E6E6",
"wX c #E7E7E7",
"eX c #E7E7E9",
"rX c #E8E8EA",
"tX c gray92",
"yX c #EBEBED",
"uX c #ECEDEF",
"iX c #EDEEF0",
"pX c #F0F0F2",
"aX c #F4F4F6",
"sX c #F5F5F7",
"dX c #F8F8FA",
"fX c #F9F9FB",
"gX c #FBFBFD",
"hX c #FDFBFE",
"jX c gray99",
"kX c #FFFFFD",
"lX c #FFFDFE",
"zX c #FDFFFE",
"xX c #FEFEFE",
"cX c #FEFEFF",
"vX c #FFFEFF",
"bX c #FEFFFF",
"nX c white",
/* pixels */
"  3 3 3 2 2 1 1 - - & : ; ; > > * ; 4 ; ; 2 = > ; ; > > ; ; = % o o $ X o @ * * + O @ * * * = = @ o ",
"; r.<.r.h.s.5.5.,.,.5.0.:.<.t.6.<.r.6.6.r.<.t.6.<.:.>.>.<.<.>.=.[ [ Q Q $.$.$.[ ' ' [ [ [ [ { { U [ ",
"* :.{ =.4.4.>.=.*.*.( ( U $.! { [ $.{ =.{ { ( Q { { ! ! H P ! ! U L L U ! ! U U ! ! L D D L L D m m ",
"; <.>.t.i...6.6.;.*.;.( U [ ! { $.$.>.>.=.=.*.( =.>.=.{ { ! ! { U U [ U ! { U [ { { [ L U L L L ! H ",
"* :.=.6.7.7.y.y.>.>.6.6.=.! ! { :.$.=.=.>.>.;.*.;.;.*.( { { P { { ! ! ! U U { { { { ! P L L L L H j ",
"; :.{ >.7.l.y.d W t.t.6.>.! ! =.$.$.{ =.=.>.;.*.;.;.*.*.{ ! ! ! P { { ! [ [ { >.j p j P L D D D j m ",
"; :.=.=.o.z.y.N Z p.t.t.>.{ >.>.=.=.;.;.$.:.5.;.3.3.*.*.P ! { ! ~ ^ { { W ] <.P 8 0 8 e y j H H m P ",
"; <.=.>.X.7.y.y.c.x.6.=.=.! =.=.{ =.*.*.$.$.>.>.3.2.=.>.{ D m { ! ^ =.=.| ] L y 9 y p q 7 e { =.{ =.",
"* :.=.=.=.] ] w.y.y.t.P I D ! ] { { { =.$.$.6.o.o.X.] { L s D U { { =.>.4.w.! e r r j H H m *.;.;.;.",
"; :.! { { { | ] 7.7.6.=.I U ! W { { { { :.>.6.7.o.X.W Z n s U U { { >.! Z | j j v v >.6.t.>.( ( ( ;.",
"; :.{ =.*.{ | | | 4...] U U U U ! { ! =.;.>.=.6.=.=.=.! { U { { =.=.6.=.r r p j b b 6.t.>.P =.! ! =.",
"; <.! { { { P ..| | | W { U U U ! { >.>.>.{ { =.>.t.6.>.{ =.{ =.=.=.>.6...B H m B Z =.=.>.P =.{ =.=.",
"- ,.! { =.6.6.6.:.>.=.{ W ! L J / #.=.=.6.6.t.{ j P 6.>.=.=.=.=.! ! >.>.<.$.Z b X.7.P H 6.t.3.2.=.=.",
", 9.{ { >.t.6.6.:.>.=.~ ] P { $./ [ { >...b ! P Z ..6.>.=.=.{ { { >.6.<.<.[ B g 7.o.H P { =.2.~ ! =.",
"6 <.=.=.>.=.>.>.>.=.{ =.{ ! { ..=.=.2.E z ^ 4.i.i.p.>.>.>.=.{ =.>.6.<.%.1.$.P P X.} P ! | | { ! P { ",
", r.>.6.;.*.>.>.>.{ { { { =.7.X.} } 8.^ E 8.i.i.i.w.t.>.>.=.=.=.=.>.:.%.&.$.H =.p.] ! ! W | { =.{ { ",
"< d.=.=.6.>.>.{ | W ! { { =.6.3.} } o.y...| >.=.'  .=.*.=.=.*.*.*.*.:.$.$.:.=.{ p.| { ! n D [ [ >.=.",
"< g.=.=.6.>.=.{ W ] =.{ =.=.6.6.} X.o.w.w.i.n.F.W.].`.U.v.=.;.*.*.;.$.[ [ :.>.6.f...{ P L L L L P P ",
", k.6.{ ;.;.=.{ { =.=.! =.=.>.>.{ { >.=.M.(.+X*X6XuXyX,XXXJ.5.;.$.:.$.U [ $.*.>.>.{ P U U L L ! { =.",
"- a.6.f.;.;.=.=.=.{ =.=.=.=.=.>.{ ! { A..X4XfXnXbXzXnXnXpX%XY.9.:.[ U [ U [ ( G ! { P U L L { =.=.>.",
"3 r.6.6.~ ^ =.{ | ] { { ] | =.=.>.{ N.{.eXnXnXxXcXcXxXxXnXsX$XD./ I U U ! ! E m P P K ( =.=.>.6.>.=.",
"3 s.>.>.2.3.! { ] ] ! { =.! { >.6.6.~.1XnXxXnXnXnXnXnXnXxXnXwX[.-.J L L { >.^ H H D Q *.>.>.=.=.=.{ ",
", 9.>.6.y.7.6.=.>.=.=.{ =.>.>.4.o.M.oXdXnXnXnXnXnXnXnXnXnXxXjX&XV.L H P P P H H H ! { =.>.=.=.=.U U ",
", 9.=.=.7.y.t.=.>.6.>.>.*.>.6.....K.=XnXnXnXnXnXnXnXnXnXnXxXkX<XT.n =.! H H ! { { P =.>.>.>.=.{ U [ ",
"1 0.*.{ | 4.>.>...4.t.>.#.$.>.w...R.3XnXxXnXnXnXnXnXnXnXnXxXnXqX).D ! ! U U { ! =.=.>.>.>.{ *.;.=.=.",
"1 0.*.{ ..4.>.=...| 6.6.-.:.>.w. .E.3XxXxXnXnXnXnXnXcXnXnXxXnXtX'.D { =.[ [ =.{ =.>.f.>.{ { *.5.6.>.",
"5 s.=.=...w.l.o...4.6.t.<.<.t.t.>.G.-XnXnXnXnXnXkXkXnXnXvXlXnX9X^.a ..] [ :.| ..=.{ t.6.{ >.;.*.=.>.",
"5 s.>.f.4.4.7.7.i.| 6.t.:.:.6.t.6.m.OXgXnXnXnXnXkXkXnXnXvXlXnX:XG.n ] W { $.| | =.>.>.=.>.>.*.( { { ",
"3 s.>.>.>.6.o.o.f.{ P 6.:.r.>.6.r.:.!.2XnXxXnXnXnXxXnXnXxXnXaXXXh. .>.{ { { =.=.{ ! P ! $.:.$.U =.=.",
"3 r.=.=.>.6.o.X.4.t.=.! ! :.=.{ $.$.m.|.rXnXxXxXxXxXxXxXnXdX%XL.<.q.6.6.>.=.>.6.=.{ ! { { [ U L ! { ",
"3 <./ #.$.[ =.] X.y.7.i.w...] Z U $.>.Z. X5XhXvXnXnXnXnXiX@XP.h.<.:.$.:.<.6.i.l.t.>.{ { W W C C [ U ",
"* :./ -.$.[ { ! X.o.7.y.4.4.] W L U >.6.B._.#X>X7X0X8X;X}.C.{ f.U U [ [ $.6.4.B >.=.! H k B Z C L L ",
"* $.{ =./ I L U =.6.>.{ | ] Z Z Z B W Z { s.S.I.W./.Q.H.b.{ f.6.Z B M C ] W | W H L Z B B b H H L L ",
"; :.{ { I x n L { =.>.=.] B b b b B r y j ! ! p D U { >.t.>.=.! b b v v b B W Z U U W Z b b m m L L ",
"; $.U U P P D L { { >.{ [ U m j m j e m U ) ! P H ! >.>.6.=.P H B b H p m P { ! Z Z W b g b j m H H ",
"* $.L L ! P L U { { { { $.U m p j j h h D C =.! H j m ! { m H H B g j j j m P m j g b b b g j m H H ",
"; :.P ! U L ! ! $.[ / / #./ H l m m h c H ! P H D n m ! P P m H j p l l j j j j y j b b m m m m H H ",
"; <.! ! L U ! ! U [ / #.#.$.! z m H h p { >.! m D D m H m P m j m j f R j p j j h j m B m m m m m m ",
"; :.W ] =.{ { ! L U $.$.[ :.P g m P ! =.6.4.t.P m m j m S I H m j p { { b b m j j j m m m j h c m m ",
"; :.W ] { ! ! { [ $.$.:.:.:.! ! P { 6.w.w.4.f.{ m m j m I J j H =.P H { W W m j j j m m j j u h m m ",
"# :.P ! ! { { { =.=.-.-.>.6.[ [ =.=.y.l.w.w.>.{ m p m j D L m H 7.o.X.} ] W b b P j j m h h j m D n ",
"# :.{ { =.{ ! =.{ =.#.#.>.>./ #.=.| z.z...W H P H m H H U U ! m } X.X.X.] W B Z P j j j u h j m D D ",
"* <.W X.>.=.$.$.=.>.=.=.:.:.:.$.>.4.z.u.B g H j H ! Z W [ L m l T X.} } Z Z Z b B W P j i i p H n D ",
"; <.X.o.=.=.$.[ { =.>.6.:.:.:.$.=.4.@.@.W r P j H P ! ! L D H z } X.} } B r g b B Z ! H i t y p a D ",
"; r.7.o.! ! ! ! } T ] ..:.<.%.F U Z O.` 7.N g Z ! ! =.{ L D H P ] Z P m j y y Z Z A Y B a w w t p m ",
"* r.4.o.{ ! P { ] _ ] ..6.<.:.:.U H | X.X.} B Z m ! ( ( U U P { ] b j m y e p P B V Y Y j t w t e y ",
"@ [ =.6.=.H P P | 4.e.+.4.4.>.>.=.{ >.] W W Z Z L U U U [ [ U U P m I #.H m l R Z Z Y T m p t t y y ",
". n p ! P m p m C 4.p.7.w.i.6.>.>.>.=.{ Z W W Z L U [ [ [ :.[ L H U #./ [ P l R B B Y Y m j a i y e ",
"o D y p p p e e q =.j.4.i.w.>.>.7.7.o.X.=.{ ! ! { { { =.$.[ ! P L [ U D U U m H m m Y Y m j p m p p ",
"@ [ H j y y e e q p =.6.i.w.6.6.7.7.o.X.=.{ ! ! { =.=.=.[ U P P n D H m D L H m m m N Y P ! H m p p "
};
