/* XPM */
static char *_56_588036401936077b87e5a30b908604f793dc2f490250b3532937765214a7daf6[] = {
/* columns rows colors chars-per-pixel */
"50 50 138 2 ",
"   c #131416",
".  c #1C1B20",
"X  c #1B1C20",
"o  c #1D1C21",
"O  c #1C1D21",
"+  c #1E1F21",
"@  c #1C1D22",
"#  c #1E1D22",
"$  c #1D1E22",
"%  c #1D1E23",
"&  c #1F1E23",
"*  c #1E1F23",
"=  c #1F1E24",
"-  c #1E1F24",
";  c #201F24",
":  c #201F25",
">  c #1F2024",
",  c #1F2025",
"<  c #212025",
"1  c #202125",
"2  c #202126",
"3  c #222126",
"4  c #212226",
"5  c #232429",
"6  c #24252A",
"7  c #25262B",
"8  c #26272C",
"9  c #25282D",
"0  c #27282C",
"q  c #27282D",
"w  c #26292E",
"e  c #272B2E",
"r  c #272A2F",
"t  c #28292D",
"y  c #28292E",
"u  c #292A2E",
"i  c #292A2F",
"p  c #2A2B2F",
"a  c #2C2D2F",
"s  c #272A31",
"d  c #282B30",
"f  c #2B2A30",
"g  c #2A2B30",
"h  c #282B32",
"j  c #2C2B30",
"k  c #292D30",
"l  c #292C31",
"z  c #2B2C30",
"x  c #2B2C31",
"c  c #2A2E31",
"v  c #292C33",
"b  c #2A2D32",
"n  c #2A2F32",
"m  c #2B2F32",
"M  c #2B2E33",
"N  c #2C2D31",
"B  c #2C2D32",
"V  c #2E2D32",
"C  c #2E2D33",
"Z  c #2D2E32",
"A  c #2D2E33",
"S  c #2F2E33",
"D  c #2E2F33",
"F  c #2A2D34",
"G  c #2B2E35",
"H  c #2C2C34",
"J  c #2D2D35",
"K  c #2C2F34",
"L  c #2F2E34",
"P  c #2E2F34",
"I  c #2C2F36",
"U  c #2E2E36",
"Y  c #2F2F37",
"T  c #302F34",
"R  c #302F35",
"E  c #2C3031",
"W  c #2C3033",
"Q  c #2D3134",
"!  c #2D3035",
"~  c #2F3034",
"^  c #2F3035",
"/  c #2E3235",
"(  c #2D3037",
")  c #2C3137",
"_  c #2E3136",
"`  c #2F3336",
"'  c #2F3237",
"]  c #2E3138",
"[  c #2D3238",
"{  c #2F3239",
"}  c #2E3339",
"|  c #2F343A",
" . c #313035",
".. c #303135",
"X. c #313036",
"o. c #303136",
"O. c #323136",
"+. c #323137",
"@. c #313236",
"#. c #313237",
"$. c #333237",
"%. c #323337",
"&. c #303435",
"*. c #303437",
"=. c #303038",
"-. c #313139",
";. c #303338",
":. c #333238",
">. c #323338",
",. c #30333A",
"<. c #32323A",
"1. c #343338",
"2. c #343339",
"3. c #303538",
"4. c #313538",
"5. c #313439",
"6. c #303539",
"7. c #333438",
"8. c #333439",
"9. c #323639",
"0. c #31343B",
"q. c #30353B",
"w. c #32353A",
"e. c #31363A",
"r. c #33363B",
"t. c #353439",
"y. c #343539",
"u. c #34353A",
"i. c #36353A",
"p. c #35363A",
"a. c #32353C",
"s. c #31363C",
"d. c #33363D",
"f. c #32373D",
"g. c #34373C",
"h. c #34373E",
"j. c #34393D",
"k. c #353A3E",
/* pixels */
"  + - 2 > > : : > > : = ; & , % * > , - * > , , * * - , > * - @ O O @ @ O X $ $ $ O % % $ $ % % O O ",
"+ 7.8.u.p.y.2.2.7.%.:.2.$.$.>.>.%.7.8.>.7.7.>.>.%.@.#.#.7.%.#.o.~ ~ ^ P ....@.~ ~ ~ o.^ ~ ~ ^ ^ D ~ ",
"# O.^ #.;.5.#.o.X.X.T T D ~ ^ ^ ....^ o.P ^ R R ^ ^ P P ~ N P P D Z D D D ~ D D P P Z N N Z N N x B ",
"& $.o.8.5.;.>.8.+.X.O. .D ~ A ^ ....o.>.o.o.X.X.+.>.o.^ D ~ P ^ ~ D ~ D D ~ ~ ~ ^ ^ ~ Z Z N Z Z P B ",
"* %.#.8.,.,.w.5.#.#.%.%.o.P D ..@...X.X.o.#.+.+.+.+.X.R ^ P P P ^ ^ D D D D ^ ^ o.^ P A Z Z D N B g ",
"$ 7.^ #.,.a.5.w ! 8.7.%.#.P ~ @.@...+.X.o.>.:.X.+.+.X.X.^ P P P P o.^ ~ ~ ~ ^ #.x i g A D z N N g x ",
"* @.o.#.' r.a.v K r.8.8.#.^ @.%.o.#.#.#.o.>.:.+.+.#.o.o.^ A ^ P U ^ ^ ^ ^ ^ 8.A 7 7 6 q i x B B B A ",
"* %.o.#._ ;.0.a.k.j.8.#.o.P ....^ o.o.#.o.#.#.#.#.o.o.#.P A B ^ U Y o.o.o.^ P y 7 y x 8 5 y o.o.o.o.",
"* @.^ o.o.o._ 5.6.e.8.^ D D A ^ ~ ~ X.+...o.>.,.{ =.^ R A B x P Y Y o.#.;.5.~ 0 i i x A l B o.+.+.+.",
"* @.P ^ o.^ _ ! ;.5.>.#.D D P P ~ ~ R X.@.#.>.0.<.=.P L B A P P Y =.#.^ M ' p p x x #.>.w.>.o.R R +.",
"* 7.^ o.o.^ _ _ _ >.-.^ ~ D D D P ^ ^ o.:.:.+.>.+.#.o.^ ^ P ^ ^ ^ o.8.^ u u g i l l >.8.>.A #.^ P o.",
"* %.P ^ ^ ^ ! ' o.o.=.U P ~ D D P ^ #.#.o.R R +.:.8.>.#.^ o.^ ^ #.o.#.>.@.Z B B b M >.o.8.P o.^ o.o.",
"> %.P P #.>.8.>.#.#.Y Y ! ! Z Z ~ ..o.#.>.>.u.o.g P <.<.o.o.^ o.K ^ #.+.7...M l ( ,.A B o.u.#.o.o.o.",
"1 y.^ o.#.8.8.#.#.#.=.Y ! M ^ ..~ ~ #.#.' l P P b ;.<.-.o.#.^ ^ ! >.8.>.%...M r ,.{ A P ^ #.o.o.P o.",
"1 7.>.o.O.O.#.#.#.#.#.o.^ P ! ' ' _ #.A z ..;.r.w.r.8.#.#.o.o.o.#.>.>.#.7./ A M ,.( P P o.o.o.P A ^ ",
"1 y.#.8. .O.>.#.#.o.^ o.^ o.-.] ! _ u.^ D 4.5.5.5.;.>.#.#.o.o.o.#.#.#.#.*.` A o.d.( P P P o.o.o.^ ^ ",
"> y.#.#.>.#.#.o.X.R ^ ^ T ..>.#.( ( ;.5.' _ *.%.;.;.*.*.#.o.R X.X.X.@.....@.o.^ r._ ^ A j V ~ ~  . .",
"> p.o.o.>.#.o.^ L R o.o. . .>.>.( { ' 5.w.w.5.>.' ;.` / o.o.+.X.X.+...~ ~ ..>.>.5.' ^ A V V Z Z V S ",
"3 i.>.>.O.$.o.^ ^ o.o.o.o.^ #.#.o.^ -.,.,.a.h.5.#.#.o.o.#.#.o.#.@.@.~ D ....o.#.#.^ D D D Z A P ^ o.",
"< t.8.>.1.O.#.o.o.o.o.o.o.o.o.#.^ P Y -.{ ,.( ] o.o.o.o.o.o.o.#.@.~ D D ~ ~ P B ^ ^ Z D D Z ^ o.o.#.",
"> p.#.#.P ^ o.^ o.P ^ o.o.o.o.#.o.o.>.#.( ( ^ ^ o.o...~ o.o.^ o.~ ~ D D ~ D A x Z Z C R X.X.#.#.#.o.",
"> y.#.>.o.o.P ^ ^ ^ ^ ^ o.o.^ #.>.>.>.#.( I P P A P ....o.>.#.^ ..N z Z ~ ..P B N Z L X.+.+.#.o.o.^ ",
"< 1.#.>.0.0.;._ o.o.o.o.o.#.' ;.,.,.{ ] P ^ ^ P B o.@.@.#.#.o.A K K P A A P Z N B P =.=.#.#.o.o.^ P ",
"; 1.o.o.<.,.5.' #.>.#.#.o.>.;.' | s.{ ( o.^ P ^ o.#.@.@.>.#.^ P K K Y Y B B ~ ~ ^ P =.-.#.#.o.o.^ ^ ",
"2 8.o.^ #.>.>.#.<.-.8.#...@.' ;.;.;.8.#.#.o.P o.;.' #.>.>.^ ^ P ^ P A P R R ^ o.o.o.#.#.o.o.#.#.>.o.",
"2 u.o.^ #.>.>.>.<.=.>.>.@.@.;.;.5.5.>.#.#.#.o.5.5.6.>.>.#.o.^ A ^ ^ ^ #.R R o.o.o.#.u.>.o.o.#.>.>.#.",
"1 y.#.o.>.5.0.{ ' ;.>.8.%.%.8.8.8.8.>.o.o.>.>.5.4.3.8.>.@...~ ~ D P o.Y R X.o.#.o.o.8.>.O.O.+.R #.#.",
"4 y.#.8.;.;.,.,.g.' >.u.@.@.>.8.8.>.>.>.o.#.>.5.9.4.@.@.....~ ~ D D P P R X.o.o.o.o.#.o.O.O.X.R ^ o.",
"> y._ ' #.>.{ { e._ P >.#.8.' ;.%.%.>.>.>.>.5.5.w.4.7.y.~ P D D E *.@.^ ^ ^ o.o.#.P A A o.#.o.P ^ o.",
"> 7.o.o.>.>.,.] 5.5.' P P >._ K ~ @.>.8.>.>.w.5.w.g.y...%.>.~ ..` &.%.%.>.o.#.8.o.^ ^ ^ ^ ^ P P P ^ ",
"* %.^ o.o.o.o.! { 0.,.d.5.;.! K P ^ #.o.] ,.a.0.u.o.i t k W u.p.%.@.@.@.>.>.a.0.u.>.o.^ K K W m D D ",
"$ @.R :.o.^ ^ P _ { ,.a.;.;._ ! A P #.#.' ,.,.a.! A B i W k o.u.D D ~ ~ o.>.0.l #.#.A B l b n m Z N ",
"$ @.^ o.~ D m Q ..#.#.o._ ! M M G F ^ A >.>.w.;.F ( ^ A >.^ u.>.M l b b ! ! ' K B Z M b c c b b Z Z ",
"* @.P ^ D a k m ~ ..+.o.o.M l l v F i y p ~ ! r I ] o.>.8.>.o.o.b l l l b b K K D D M M k k l b Z Z ",
"* @.P P Z Z N N ^ ^ o.^ ~ D B g x g 9 b W W P A B P o.o.4./ A B b l x x x A ^ P M M M b l l x x B B ",
"* ..A P D Z Z D P ^ ^ P ..~ x i g g d l m m o.P B x x ^ W c B B b d x g x B A B g d l l M d g x A A ",
"* @.P P P A P P ~ ~ T T  .T B g B x p z B P A B N N x P A B N N d d g g x g g i i g l d x B x x B B ",
"> %.P P P P ^ P ~ ~ T  . . .P x x B p p ^ #.P x N N x B x A N z l d g B x g g g f g x b x B B x x x ",
"* @.P ^ o.^ R C D ~ ......@.P x x P P o.5.5.w.b B x x x N D B x h s P o.l l x g g g x x x x g x x x ",
"* @.P ^ ^ P R R ~ ..@.@.@.@.^ A P ^ >.5.5.;.w._ B x g x D Z x B { G A ^ ! M x i g x B x g g i x x x ",
"* @.^ P ~ ~ ^ o.#.o.@.@.@.%.R X.o.o.0.a.5.5.;.! B x x x Z N x B ,.{ ] ( ! K l l c e g x g g g x N N ",
"* %.^ ^ o.~ ^ o.o.o.....@.@.X.X.o.' f.s.' K b b B B B A ~ D A B ] ] ] ] K K l b m c g g i g g B N N ",
"& %.^ ' #.o.o.o.o.#.o.o.%.%.@...o.5.f.q.M l A x A P A A ^ A x x I ] ( ] M K M l c W B x u u i A Z N ",
"& >.{ { o.o.o.o.o.o.>.>.@.@.@..._ ;.q.| K d A g B A P ^ P B B B ( ] ] ( b r d b c m P B u t y i N N ",
"* >.,.{ ^ P Q M ! I ( #.@.$.@.~ P K } [ ' b x L P P o.^ V N B ! K M B x x y y A M M F b p 0 q y i x ",
"$ >.<.{ Y P K _ _ ) ( { >.%.@.@.P l { ] _ ! A C A P ^ ..S D A ! ! l g x i i i B b b F G x t y y q i ",
"o ..o.<.{ b A M _ 5.0.,.;.>.#.#.' ! ' ! K K J H A P D D ~ ..A P A x S  .B x g B K M G G x i y y y y ",
". j i P I v g x M 5.h.,.5.w.>.#.' ' o.o.K K Y U P P ~ ~ ~ ..^ A B P  .S ^ A x A b b F F B g g i i q ",
"O Z g x x g q q 8 o.g.;.5.w.#.#.,.{ =.=.o.P P P ^ o.o...~ ~ A A Z ..P B P A B x x x G G x g g g i i ",
"$ ~ B g y y q q 8 i ' ;.5.5.8.#.,.,.-.=.o.^ P P ^ o.o.o.~ ~ A A z N B x B A A x B x v F A P B g g g "
};
