/* XPM */
static char *_2014_209f5bcc53db96455f9e3a3e362e55886658903fe08706789937479cee13bed5[] = {
/* columns rows colors chars-per-pixel */
"50 50 194 2 ",
"   c #16171B",
".  c #1D1E22",
"X  c #201F24",
"o  c #3E1F24",
"O  c #1F2024",
"+  c #212125",
"@  c #25262B",
"#  c #27282D",
"$  c #29292E",
"%  c #28272D",
"&  c #3D2227",
"*  c #35242A",
"=  c #3B252B",
"-  c #33292D",
";  c #39292E",
":  c #272A31",
">  c #2C2D32",
",  c #322E33",
"<  c #3A2C32",
"1  c #2F3035",
"2  c #2F3239",
"3  c #313136",
"4  c #3A3034",
"5  c #323339",
"6  c #3A3138",
"7  c #34393D",
"8  c #5C0F15",
"9  c #5C1117",
"0  c #591218",
"q  c #49181E",
"w  c #69161C",
"e  c #711118",
"r  c #451E23",
"t  c #4A1E24",
"y  c #571C22",
"u  c #6B1D23",
"i  c #661E22",
"p  c #7B1D22",
"a  c #432126",
"s  c #4B2125",
"d  c #442329",
"f  c #43292E",
"g  c #4A262B",
"h  c #542327",
"j  c #5D2127",
"k  c #53242A",
"l  c #5A242A",
"z  c #5E2A2E",
"x  c #432B31",
"c  c #6C2126",
"v  c #65252A",
"b  c #6A252C",
"n  c #66282D",
"m  c #662529",
"M  c #76252A",
"N  c #632A30",
"B  c #743339",
"V  c #0C2C5A",
"C  c #20315D",
"Z  c #34385D",
"A  c #152C60",
"S  c #0F3065",
"D  c #11366A",
"F  c #1C3F75",
"G  c #293D69",
"H  c #284575",
"J  c #344F7A",
"K  c #524D6D",
"L  c #88171D",
"P  c #831F27",
"I  c #8B252A",
"U  c #82262B",
"Y  c #9B272C",
"T  c #962329",
"R  c #9C2930",
"E  c #863136",
"W  c #88353B",
"Q  c #863237",
"!  c #943338",
"~  c #A4262B",
"^  c #AE262C",
"/  c #BB2A2E",
"(  c #A32D33",
")  c #AD2B31",
"_  c #B52B31",
"`  c #BC2D34",
"'  c #A5363B",
"]  c #B4353B",
"[  c #BB363D",
"{  c #BA343A",
"}  c #D61C1F",
"|  c #CD1E22",
" . c #C61F27",
".. c #D21D22",
"X. c #D81D23",
"o. c #EC1F26",
"O. c #EC1E28",
"+. c #E71E24",
"@. c #CC2125",
"#. c #C5252B",
"$. c #C9252B",
"%. c #C9282D",
"&. c #DD2127",
"*. c #D4232A",
"=. c #DC252A",
"-. c #D6292E",
";. c #DD282E",
":. c #D12026",
">. c #C52D34",
",. c #CC2E34",
"<. c #CB2F3A",
"1. c #DB2B31",
"2. c #D02F34",
"3. c #C73137",
"4. c #CD3035",
"5. c #C3343B",
"6. c #CA343A",
"7. c #C3383F",
"8. c #D53136",
"9. c #D43338",
"0. c #D33B3E",
"q. c #E42227",
"w. c #EA2127",
"e. c #E5242A",
"r. c #EB2229",
"t. c #E2282D",
"y. c #F02328",
"u. c #E02830",
"i. c #A13C42",
"p. c #B13A40",
"a. c #C83D42",
"s. c #D33D44",
"d. c #A2494F",
"f. c #AF4047",
"g. c #B44247",
"h. c #B64349",
"j. c #BF4C51",
"k. c #CB464A",
"l. c #C7494E",
"z. c #D44348",
"x. c #C14E53",
"c. c #D04C59",
"v. c #CE505B",
"b. c #D85B5F",
"n. c #E25458",
"m. c #E85B61",
"M. c #DD6368",
"N. c #F2686D",
"B. c #EA6B73",
"V. c #F56E74",
"C. c #FB767A",
"Z. c #E57275",
"A. c #4B6186",
"S. c #716188",
"D. c #727095",
"F. c #737DA0",
"G. c #6F809A",
"H. c #8D8CAC",
"J. c #9480A3",
"K. c #8E9BBE",
"L. c #A18EAC",
"P. c #91A0B7",
"I. c #E7818C",
"U. c #FD838D",
"Y. c #F68B8E",
"T. c #FB8B94",
"R. c #F08E97",
"E. c #DEA4BA",
"W. c #EDADBE",
"Q. c #FFBCBF",
"!. c #FFB2B6",
"~. c #F6A7BA",
"^. c #90A7C7",
"/. c #DFBADB",
"(. c #FFB9C1",
"). c #FFC3C6",
"_. c #FFCACD",
"`. c #FFC3CE",
"'. c #FFCFD3",
"]. c #FFDBDD",
"[. c #FFD4D6",
"{. c #CAD9EE",
"}. c #FDD9E7",
"|. c #F8DFF4",
" X c #D8E4FE",
".X c #E2E0EE",
"XX c #FFECEE",
"oX c #FFECF3",
"OX c #FFEDFB",
"+X c #EAF2FF",
"@X c #FFF2F4",
"#X c #FFF5FB",
"$X c #F6FAFE",
"%X c #FDFCFE",
/* pixels */
"  . O O + O + + O O . . O . . + . O O O + O . O . . O . O O   O   . .   . . . . . . . . . . . . .   ",
". 3 5 5 5 5 5 3 3 3 3 5 3 3 3 3 5 5 3 3 5 3 5 5 5 3 3 3 3 5 5 3 1 1 1 1 3 3 1 1 > 1 > > 1 1 1 1 1 1 ",
". 3 1 3 1 5 3 3 3 3 , 3 , 3 1 1 1 1 3 3 1 1 , > 3 1 > 1 > > 1 1 $ , $ 1 1 > 1 > 1 > > > > > > $ $ > ",
"O 3 3 5 5 3 5 5 3 3 3 3 , 3 1 1 1 3 3 3 1 3 3 3 3 3 3 1 1 > > 1 1 3 3 > 1 1 > , 1 1 1 > 1 > > > 1 > ",
"O 5 1 5 5 5 5 5 3 3 5 5 1 1 1 1 3 3 3 3 3 3 3 3 5 , 3 1 1 1 > > 1 > 1 1 3 $ 3 3 1 1 1 > > > > > 1 $ ",
"O 1 1 2 5 5 5 $ 1 5 5 3 3 1 1 3 1 3 3 3 3 3 3 5 1 5 3 1 1 1 1 > > 1 3 > 3 3 > 3 $ $ $ > > > > > $ $ ",
"O 1 1 3 2 5 7 : 1 5 5 5 3 1 3 3 3 3 3 3 3 5 5 5 5 2 2 2 1 > 1 > > 3 1 1 1 1 5 1 @ @ @ # # > > > > 1 ",
"O 5 1 5 1 2 5 7 7 7 3 3 1 1 1 1 1 3 3 4 ; a & d d d a a & = < , > 1 1 1 1 1 $ $ # # $ # O > > 1 1 1 ",
"  5 1 3 1 1 1 1 5 7 5 1 1 > 1 1 3 5 = d v W i.p.h.h.g.i.Q m r * 3 3 3 1 5 5 1 # : $ $ > > $ , 3 3 3 ",
"+ 5 1 1 1 1 1 1 2 5 5 1 1 1 - ; = t B d.x.l.s.9.8.8.8.0.k.x.d.B s d 4 , 1 1 > $ : > 5 5 5 3 1 3 1 1 ",
". 3 1 3 1 1 1 3 1 2 1 1 $ , - o M p.z.8.-.=.=.=.t.=.=.&.*.;.8.z.h.M a < # $ $ $ > : 3 5 5 > 1 1 1 3 ",
"O 5 > , 1 1 1 3 1 1 1 1 3 ; s Q l.9.&.+.O.O.w.w.w.w.w.w.w.w.o.X.8.l.W s ; 1 $ > : 1 3 3 5 > 3 1 1 3 ",
"  6 1 1 3 3 5 3 1 2 5 1 - s ! z.-.e.w.+.w.+.r.w.w.w.w.w.r.w.r.w.=.-.s.' s < , : 1 2 1 1 5 5 5 1 1 3 ",
"+ 7 1 1 3 5 5 5 1 5 1 4 s Q s.&.e.r.w.r.w.w.w.w.w.w.o.w.w.w.w.w.w.w.&.s.! t < : 2 2 > 1 1 1 3 1 1 3 ",
"+ 3 3 3 3 3 3 5 5 3 3 a U a.=.e.w.w.w.r.w.w.w.w.w.w.w.w.w.r.r.r.w.w.w.-.a.I r > 2 1 > 1 1 1 3 $ > 1 ",
"+ 5 3 5 3 3 3 3 5 3 ; j [ ;.q.r.w.w.w.w.w.w.w.w.w.w.w.w.w.w.w.O.w.w.q.w.=.a.j < 5 1 1 > 1 1 3 3 1 1 ",
"+ 5 3 3 5 > 5 > 3 < s Q 9.q.e.w.w.r.w.w.w.w.w.w.w.w.y.r.o.O.w.w.w.w.w.w.e.9.! s 4 5 1 1 $ > 3 3 1 1 ",
"X 5 3 3 5 5 5 1 1 = i ] 8.:.%.9.,.@.=.e.w.w.w.w.e.=. .,.9.%.@.t.q.w.w.w.w.;.[ c x 5 1 > > 1 $ 1 1 1 ",
"X 6 5 3 5 3 , 1 1 d I 7._ M.(.[.[.R.6.-.e.w.w.w.=.>.I._.].).Z./ t.o.w.w.w.=.8.T g 3 > 1 1 > > > 1 1 ",
"+ 5 5 5 , 5 5 , 1 s ) / I.OX%X%X%X@X(.6.=.w.w.t.5.(.#X#X%X@XXXT.$.e.w.w.w.q.t.) s 3 $ > > > 3 1 1 1 ",
"+ 5 5 5 , > 2 2 3 h ) c.oXH.D. X%X@XXXY.@.r.y.| R.}.D.K.$X%X%XXXn.&.q.w.w.w.e.>.h - , , 2 3 5 3 5 3 ",
"O 5 3 5 2 2 > , , l ^ U.J.V S A.%X%X%X_.,.y.o.>./.K A V P.%X$X@XU...e.w.w.w.w.3.j - , 5 3 3 3 1 1 1 ",
"+ 3 3 5 5 2 2 1 < z ) T.K H F H +X%X%X'.4.w.y.<.E.Z H S G.%X$X@XT.@.u.w.w.w.o.,.m ; , , 3 , 2 3 $ 1 ",
"+ 3 3 3 5 5 5 , < N / B./.G H ^.%X@X@X!.$.r.w.#.~.L.C J {.%X@XXXV.:.e.w.w.w.o.2.b = , 5 5 3 3 > 3 1 ",
"X 4 3 3 1 1 5 3 ; n 3.%.`.#X.X$X%X#XXXb.:.r.r.*.l.oX|.+X$X$X@X_.4.w.w.w.w.w.o.,.b = 4 3 3 3 3 3 3 3 ",
"+ 5 3 3 1 5 3 3 4 n 4.*.k.(.XX@X@X].Z.#.t.O.r.t. .b.}.OX@XXX).l.=.r.w.w.w.w.o.<.b < 6 3 1 1 3 3 5 3 ",
"+ 5 3 5 5 5 5 4 - n 2.e.:.$.n.C.N.0.:.t.r.w.r.e.r.*.a.N.C.n.,.:.e.w.r.w.w.w.O.,.b < 4 3 3 3 3 3 1 3 ",
"+ 5 5 5 3 5 5 5 4 m 4.o.w.e.&.} } q.r.r.w.w.w.w.O.r.+.X.:.&.w.r.w.w.w.w.w.w.O.<.b < 3 3 3 3 1 1 1 1 ",
"+ 5 3 5 3 5 1 5 < m 2.w.w.w.e.t.e.w.w.w.w.w.w.w.w.w.e.r.e.r.w.w.w.w.w.r.w.w.o.2.b = < 1 1 1 3 1 1 3 ",
"+ 5 3 5 5 5 5 3 3 n ,.+.w.w.w.w.r.w.w.w.w.w.w.w.w.w.e.w.r.w.w.w.o.w.w.r.w.w.o.,.b < < 2 1 1 1 1 1 3 ",
". 3 > 3 3 1 1 3 < n 2.w.w.w.w.w.w.w.w.w.r.w.w.w.w.w.w.w.w.w.w.e.w.w.r.w.w.w.o.2.b < , 1 1 > > > 1 1 ",
"  3 , 3 3 1 1 , ; m 4.w.y.w.w.w.w.w.w.w.r.r.w.w.w.w.w.w.w.w.w.w.w.w.O.w.w.w.o.<.b ; < > # > > > 1 $ ",
"+ 3 3 3 3 > > > ; n 4.w.o.w.w.w.w.w.w.w.w.w.w.w.w.w.w.w.O.r.r.w.w.q.w.w.w.w.o.2.b * , > $ > > > $ 1 ",
"+ 5 1 1 > > , - ; m 2.w.w.w.w.w.w.w.r.w.w.w.w.O.w.r.w.w.r.e.w.w.w.w.w.w.w.w.o.,.b ; , > : : : > 1 > ",
". 3 $ 3 > > > > ; m 2.w.w.w.w.w.w.w.w.w.w.O.r.e.w.w.w.w.w.w.w.w.w.w.w.w.w.w.o.,.c * , > > > $ > $ 1 ",
". 3 $ 1 > > > ; ; m 2.w.w.w.w.w.r.w.r.w.w.w.w.w.w.O.e.w.w.w.r.w.w.w.w.w.o.w.o.9.m * , : : $ $ > > > ",
". 3 > > 1 > , , ; m 4.o.w.w.w.w.w.w.w.w.w.w.w.w.o.w.w.w.w.w.w.w.w.w.w.r.w.w.o.2.m * > : > > $ > $ 1 ",
"O 3 1 1 > > 1 < ; m 4.w.w.q.t.t.t.e.w.w.w.w.q.t.1.1.t.q.w.w.w.w.&.1.u.=.w.w.r.4.b * - > $ > > $ 1 $ ",
". 3 1 1 1 1 , , - j 4.+.w.1.{ Y >.1.q.w.w.q.t.,.Y Y ,.=.w.w.q.=.<.^ ^ >.;.w.o.,.i * - > > > $ > $ > ",
"O 3 , 1 1 1 1 1 ; m 4.t.-.^ e 8 e ` 1.q.w.=.,.L 0 0 L ,.=.q.t.2.Y 8 8 P >.1.w.,.j * > > $ : $ $ 1 $ ",
". 3 1 > 1 1 3 3 > l >.1.' u s f s u 3.=.t.4.M t d = q U 9.=.8.( y x x t p p.1.3.l $ > $ $ $ $ , 1 $ ",
"O 3 1 1 1 1 1 1 1 h ' ] c d 4 3 3 s U { [ I t < 1 - ; t R 5.( w = 2 2 6 t p p.( t > > > $ $ $ > $ > ",
". 5 > 2 3 1 1 1 3 4 k h f 4 1 1 3 4 f k j r = > $ 1 $ ; s l s & , 1 1 1 - o h t - > > : $ $ $ > $ > ",
"O 3 2 5 2 3 1 > 1 1 , 3 3 3 , 1 3 5 5 5 , $ > : $ 1 1 3 - $ $ 1 2 2 2 2 : : $ $ > > > > : % $ $ $ > ",
"O 5 2 2 1 1 1 1 1 1 1 1 3 3 3 1 1 > 1 2 1 > $ > 1 1 1 1 $ - 1 $ > > , : : : % , > > > > > % % % $ > ",
". 3 1 5 1 1 > 1 1 1 1 1 3 5 1 3 1 1 1 1 1 1 $ 1 $ 3 1 3 1 1 1 1 1 : : > # : : > : : > > $ % $ % @ $ ",
"  1 3 5 1 1 1 1 1 1 3 7 3 5 3 3 1 1 1 1 1 1 $ 1 $ 1 1 $ $ 3 1 1 > > , 3 > > : > 2 : : > > $ $ $ $ $ ",
". > $ 1 1 : # : > 2 7 3 7 5 5 3 5 5 1 1 : 1 1 1 1 1 3 3 1 3 1 > > > 3 > 1 > > : 2 > > > > : $ $ $ $ ",
". $ $ $ $ $ @ $ @ 1 5 5 5 5 5 1 5 7 2 2 1 1 1 1 1 3 1 3 3 1 > > > 3 > > > > > > > $ > : > : : > $ : ",
". 1 1 $ $ $ $ @ @ $ 1 5 7 5 1 5 2 2 2 2 1 1 1 1 1 1 3 1 1 1 1 1 $ > > > > > > > > $ > > > > > > $ $ "
};
