/* XPM */
static char *_6270_8f4946f63186c460c2c13f0ce4b1c13f537c6f4a7073f94d65038690a1beae43[] = {
/* columns rows colors chars-per-pixel */
"50 50 126 2 ",
"   c #030100",
".  c #0B0601",
"X  c #0D0803",
"o  c #0C0C0C",
"O  c #110700",
"+  c #130A02",
"@  c #190E05",
"#  c #100D08",
"$  c #180F08",
"%  c #1C1106",
"&  c #16110C",
"*  c #1D130B",
"=  c #131315",
"-  c #1B1611",
";  c #1A1815",
":  c #151619",
">  c #17181A",
",  c #1B1B1C",
"<  c #211306",
"1  c #2A1602",
"2  c #2D1A06",
"3  c #22160A",
"4  c #25190C",
"5  c #2A1B0D",
"6  c #331F07",
"7  c #331E0A",
"8  c #201710",
"9  c #241B13",
"0  c #2C1E12",
"q  c #221E1C",
"w  c #37220E",
"e  c #39230C",
"r  c #2E2113",
"t  c #25211D",
"y  c #2C241A",
"u  c #332414",
"i  c #392616",
"p  c #3E2B16",
"a  c #342619",
"s  c #392719",
"d  c #36281A",
"f  c #3B2B1B",
"g  c #1D1E22",
"h  c #201F24",
"j  c #1E2024",
"k  c #222223",
"l  c #292523",
"z  c #2B2925",
"x  c #25262A",
"c  c #28272C",
"v  c #27292E",
"b  c #2A2A2E",
"n  c #322B23",
"m  c #312E2B",
"M  c #34312D",
"N  c #3C352E",
"B  c #272A31",
"V  c #2C2E32",
"C  c #302F34",
"Z  c #2F3035",
"A  c #2F3239",
"S  c #313136",
"D  c #3A3732",
"F  c #3B3834",
"G  c #323439",
"H  c #39373A",
"J  c #34393D",
"K  c #3C3C3C",
"L  c #442C14",
"P  c #482E15",
"I  c #422F1D",
"U  c #492F19",
"Y  c #4B3016",
"T  c #46311B",
"R  c #4C331B",
"E  c #51351D",
"W  c #543A1F",
"Q  c #433323",
"!  c #493622",
"~  c #4D3925",
"^  c #4E3E2A",
"/  c #523B24",
"(  c #583E24",
")  c #503E2A",
"_  c #453E33",
"`  c #423F3B",
"'  c #5C4126",
"]  c #57422B",
"[  c #5C452E",
"{  c #43413E",
"}  c #4A443D",
"|  c #413F40",
" . c #444342",
".. c #4A4744",
"X. c #4B4945",
"o. c #464648",
"O. c #4D4C4B",
"+. c #514F4C",
"@. c #5A5047",
"#. c #52514E",
"$. c #5B534B",
"%. c #514F50",
"&. c #555453",
"*. c #595756",
"=. c #5A5956",
"-. c #575759",
";. c #5D5C5B",
":. c #665B51",
">. c #625F5C",
",. c #62605E",
"<. c #6E635A",
"1. c #646462",
"2. c #686667",
"3. c #6C6965",
"4. c #6D6C6B",
"5. c #756C62",
"6. c #7A6E63",
"7. c #76726F",
"8. c #757573",
"9. c #787677",
"0. c #7E7973",
"q. c #7B7A78",
"w. c #807E7F",
"e. c #84807F",
"r. c #898987",
"t. c #8A8889",
/* pixels */
"= j k g j h h h h h h h h h g g g g j j g h g h j j g j g h g g , , g g g g , j j , j g , j h g g , ",
"g G S G J G S G S G C G S S G G G G G G G G G G G Z S G G G S S S S Z V Z V S S Z Z Z Z V S C C C V ",
"g G S S G G S S C S m S C G V S V S V G C S C C Z Z V V V V V V S b V V V V Z V Z Z b Z V V V b V V ",
"g G S G G S G S S S S S V C V C S V G G S C A C S S S Z G V V S V V S S Z Z V S Z Z Z b Z V V V V V ",
"g S V G G A G J S S G G S Z Z Z S S S S S S S C C G C C C C V S Z V Z V Z V Z Z Z Z Z V V V V V V v ",
"g S S G A J A B V G G G S V Z S S S Z Z Z G S S G S S S V A V V V S S V Z Z Z S b v v Z V V V V V V ",
"g S Z S A J A V V J G G S Z S S S S S S S G G C S S S C V V G V V Z Z Z V Z G V x x j v v V V V V V ",
"j G S A V A J A J J S S S V S S V S S S Z S S S G C S S C V V S Z Z S Z Z Z V v x B B v x x V G C V ",
"g S S Z A C V G J G G A V V Z S S C C C C C G A G G C C C V V V S S Z Z A G Z v V c V V V V S S G G ",
"g S Z Z C C G V A A G V Z V V V C A C C S G G A G C C C V V C V V S Z Z Z Z b b B V C G G S C C C C ",
"h S Z Z A A A V Z G G Z Z b S V C C C A G C V C V c B V C V C A Z S S S v B b b V v G G S V S V V G ",
"g S Z Z V A V S S Z A V Z Z V V V S V V V K O.%.%.1.1.| b V V V S S S G A B Z V V V C A G V S Z C C ",
"h S V S S G S G S G S V V Z V V V S K &.&.*.2.%.>.t.t.2.4.,.o.V b V G S G Z V B V G V V G G S S G C ",
"h G S V G G G G S S C A A V S V K V H 4.4.*.,...O.q.4.+.4.1.w.-.K b S G G V V B G A V V V S S Z V S ",
"k G S C S G S G Z V S S V V V F %.>.m X.>.3.7.=.O.9.4.;.,.+.+.4.9.K z S G S V V A A V V S S Z V V G ",
"k G S G S C G C G S V S Z J K H  .;.+.b +.+.M ; - m _ M { ..>.4.;.F m b V S V A G A V A V S Z S S V ",
"h G C A G G G V Z V Z Z S K G K  .*.=.l - $ O X O 4 % 4 * y >.;.{ M =.F x Z Z Z J Z Z V V V C S S S ",
"h H G C S S G S Z Z S Z V V m z  .,.M o . 9 d u 5 ^ R ~ f * 9 D S &.e.#.k b S Z J V Z b V V b S V V ",
"h H G C C G S V Z Z Z Z D { ,.*.K z . X < ! ! w 2 ) / / ] p 3 # M 4.,.;. .k Z J G Z Z Z V V V C C S ",
"h G A H S S S G Z Z Z G  .*.3.4.F . + 4 u / R e 1 ) W R ' R f @ y 1.8.4.O.q x V Z A b Z V V C C S S ",
"h G G G V V G V Z S S S K #.=.*.; . 5 i T ' / e 1 ~ Y L / E T i 8 X.8.,.O.j j Z b Z V C S S G G S S ",
"h G C G S A V S Z Z S b l K X.D X % f L Y ' E e 1 ~ T L W E Y E u * m z t q q b b V V S S S S S S Z ",
"h G G G J A S S S S S m q b z ; + 4 ^ P Y ' R 6 1 ~ p e R Y P / N + q O.;.| > b Z S Z S S S S S S V ",
"h G S C G G G Z S S C S %.>.-.; + u [ Y Y ' R 6 1 ~ p e Y P L ) ! % F 8.2.K = b S V S S S S S Z V V ",
"h H C V A G S S G G Z K O.&.&.$ % f [ Y Y W T w 1 ~ f 2 T P L ~ R * N &.O.M > b S S G S S S S S S S ",
"h C G C G A G Z Z Z H &.&.,.;.- < Q ] L T R T w 2 ^ f 2 T R T ~ ^ < } 4.;.o.b v S S G S Z Z S G G S ",
"h G G C A G J A A G J  .o.*.%.X * Q Q 7 u p p 1 < f 0 3 u u i T N % D &.X.{ x m G S G S S S S S S S ",
"k G S H A A G A G Z Z j h z , . n :.6.5.6.6.<.} n 5.<.@.$.:.:.:.@.y t z M V > b S S S S S S S S Z S ",
"h G G G S G A A G Z x o = ; : o t D } @.N ,.0.M z } 7.$.z X.} y } t & = ; = = V S V V C Z S Z V S S ",
"k G C C S G G A G G v g b X.K . . # $ + t &.} M   D #.+.y . + . + . b *.1. .: V G C V C Z A Z V V V ",
"g G C C G V S V Z G v k M =.O.. < f Q 4 y <.4.} . ` 1.3._ 0 4 4 a * M =.&.F > V G G G V Z B Z V S V ",
"g S C G S S S V A A v k { O.S . 4 n ! u 4 0 N - % 9 y n u f 5 5 Q 5 z K K F > c G S S V v Z b Z V V ",
"g S Z S S Z b Z S G c , S N t . * d f 2 0 4 * 3 @ y + + s u 5 5 I 5 N &.#.K > b V V Z B Z B B Z V V ",
"g S Z Z Z b b Z V G c ; { #. .X % u f 5 4 0 f 3 + 0 * 3 u u 4 5 s 4 l m G > = v b Z Z B b B B B V V ",
"j Z Z V b S b V Z S x k  .+.K . + 4 u 4 4 4 u 4 O 9 * % 4 u 3 < r % z %.| b = v Z Z V Z Z B V b V V ",
", Z V Z V Z Z V V S x M *.1.+.o . 4 r * % 4 r 3 + 9 3 @ 4 5 4 4 0 # D 4.,.-., c V b b B V b b Z V V ",
"j A b Z Z V V Z Z A k m ;.=.o.X X % 4 < * * r % O 9 * O 3 4 3 0 0 @ z ;.-.| = c c V V V b V V B V V ",
"j A Z Z Z V Z V Z A x > m M t   X & 3 $ % 4 4 # O - + + 8 * < 4 u & k H H v = c V B B V B V V V b V ",
"j S Z Z Z Z Z Z V Z M j j t j j q l z t z z z b l z l q l l q h z h l k x k x v V c B B V v v V b V ",
"j Z Z Z Z Z V M V S S S S S S V S S G J A F F Z V b V b V C C C C V V C Z V V V V V V V v V v v V V ",
"j A V Z Z Z Z Z S S S S S S b S S Z G A A G A Z V v b b V V b V A A A V V V B Z V B V V c v V V V b ",
"j Z Z Z S Z Z Z Z S S S S S S S A A G J Z Z Z B V V V b C C C V A A A A A Z V B V v V B v V c V V b ",
"j A Z A S S A S Z S Z Z G S S S A A J A b B Z b V C V Z C V V v B A V A V V V B V V V V v v v V V V ",
"j G Z Z S Z Z Z S S G G Z A S M A A A A Z b Z b V V C V V V b V A A A A B B b V B V V V b v c B b V ",
"j G G A Z b Z Z Z Z Z S S S S M V Z A Z A V v S V V S S b C b V A B Z B V v v V B Z B Z V v v v v V ",
", G A A Z Z b A Z Z Z S G S G A Z V A A Z S b V V Z S V C C C S Z v V Z v b v V Z B Z B v v x b v v ",
", Z A G Z Z V Z Z Z G A A Z G S S Z A Z Z V b Z b V V V Z V S V b V b S V b b Z B Z B V V v v v v v ",
"g b b Z Z b v V V A J A G J G S Z A Z Z V Z Z S S V S S V S S V b Z Z Z Z Z B Z B B V V V v V b v v ",
", V v v V v v v c Z J G G G G S G A A A V V A C S V S G S V C V Z Z Z V b Z b Z B Z B B Z b b V b B ",
"g Z V b v v v c c v C G G G G G J A A A G V V V C G G V S V V V Z b V V b Z b V b Z B Z Z Z B b B b "
};
