/* XPM */
static char *_250_bb36becdea0af3402c6010b073ed4a2a6bd6895276cf7990a8a3a1f1faf0d7a8[] = {
/* columns rows colors chars-per-pixel */
"50 50 145 2 ",
"   c #121317",
".  c #1A1B1F",
"X  c #2C2603",
"o  c #2E2904",
"O  c #24210E",
"+  c #29240D",
"@  c #2E2A0D",
"#  c #332B02",
"$  c #392F00",
"%  c #312C0D",
"&  c #3C3301",
"*  c #353008",
"=  c #3C3509",
"-  c #292612",
";  c #2E2B14",
":  c #272518",
">  c #2A271B",
",  c #2D2B1B",
"<  c #302C15",
"1  c #312D1B",
"2  c #33311D",
"3  c #1D1E23",
"4  c #201F24",
"5  c #1F2024",
"6  c #222326",
"7  c #2C2B23",
"8  c #25262B",
"9  c #28272C",
"0  c #27292D",
"q  c #292A2E",
"w  c #312E25",
"e  c #2E302F",
"r  c #333224",
"t  c #33322C",
"y  c #383629",
"u  c #2C2E32",
"i  c #302F35",
"p  c #2F3035",
"a  c #2E3239",
"s  c #313136",
"d  c #393A32",
"f  c #323339",
"g  c #34393D",
"h  c #433A01",
"j  c #4C3D02",
"k  c #423A0B",
"l  c #493F0C",
"z  c #4A4005",
"x  c #4A410A",
"c  c #514401",
"v  c #5B4D01",
"b  c #50470C",
"n  c #574C0C",
"m  c #5E5102",
"M  c #574D12",
"N  c #584E11",
"B  c #5F561A",
"V  c #655502",
"C  c #6D5D02",
"Z  c #63591A",
"A  c #776501",
"S  c #7D6B05",
"D  c #7B6C0F",
"F  c #7F6E1C",
"G  c #665C21",
"H  c #796F28",
"J  c #7E7331",
"K  c #333541",
"L  c #816E07",
"P  c #87750F",
"I  c #8D780D",
"U  c #847414",
"Y  c #8E7C12",
"T  c #917F15",
"R  c #857622",
"E  c #80722B",
"W  c #8A7B28",
"Q  c #807631",
"!  c #8D7D30",
"~  c #9A8616",
"^  c #A38E1B",
"/  c #AE981E",
"(  c #9C8A26",
")  c #8D8032",
"_  c #958530",
"`  c #978B37",
"'  c #91833A",
"]  c #978A3C",
"[  c #988C3A",
"{  c #AB9621",
"}  c #A6942E",
"|  c #A8962A",
" . c #AE9B2C",
".. c #A29334",
"X. c #AB9937",
"o. c #A39339",
"O. c #A9993A",
"+. c #B09E3C",
"@. c #BFA92F",
"#. c #B5A333",
"$. c #BBA93D",
"%. c #C4AC26",
"&. c #D2B72C",
"*. c #C2AE3C",
"=. c #D9BF35",
"-. c #F5CF0D",
";. c #FFD300",
":. c #F6D00E",
">. c #F9D20B",
",. c #F6D113",
"<. c #F9D314",
"1. c #F7D31C",
"2. c #F9D41A",
"3. c #F7D724",
"4. c #F8D825",
"5. c #F7D828",
"6. c #F9D92D",
"7. c #E2C732",
"8. c #E3C831",
"9. c #E9CC33",
"0. c #E7CC3D",
"q. c #E9CF3E",
"w. c #EED135",
"e. c #EDD23B",
"r. c #F5D636",
"t. c #F6D935",
"y. c #F8D931",
"u. c #F3D63A",
"i. c #F5D93C",
"p. c #F9D938",
"a. c #A89841",
"s. c #BBAA40",
"d. c #C4B345",
"f. c #C9B447",
"g. c #CDB845",
"h. c #C9B449",
"j. c #DDC654",
"k. c #E0C746",
"l. c #E1C847",
"z. c #E9CF46",
"x. c #E3CA4B",
"c. c #EED344",
"v. c #EAD14B",
"b. c #F3D643",
"n. c #F3D942",
/* pixels */
"  5 6 5 5 6 4 4 4 4 4 4 4 4 4 3 5 6 3 4 4 6 3 3 3 3 3 3 5 5 5 3 . . . . . . . 6 3 . 5 . . 3 3 3 . . ",
"3 f f f f f s s s s s f s s f s s f s s s f s f f s s s f a p a s s s s s f s s p e p p i s s s u s ",
"3 s s s f f s s i i i s i s i s u s i s i i i i s a u u u u p u p q s q e q s q e p p q q e u u u u ",
"5 s s f f s f f s s s s e i u i s s s s f i i i s s s s p p u p s q s p p s p p p p p p s u u u u u ",
"3 s s f f a f f f s f s p p e p s s a s s s i s i f s i s s u u s u i i s q p p p p u u u u u u u u ",
"3 s a s f f f u p f f f s p p p s s s s s s f i f s i i p u u s u p i u s p p a q q u u u u q u q q ",
"4 s a s a f f u u f f f f p a a s s s s s s s s s s s s u i s u u p p p p p a p 8 8 8 0 q q u u u u ",
"4 s f f a a a a g g f s s e p p u s s s s s d t t y t y s u u u p p p p p p p 0 8 0 q 8 6 q s s i s ",
"3 s s s s s a f a f f p u q p p p p a f e 7 , - < @ - : 7 q p p p p p s a f p 0 0 q q u u u s s s s ",
"3 s u s u s a u f a f p p p p p e y ; o k G J ) ` ` ] H M $ X ; t t f p e p q q u u s f s s i i i s ",
"6 s s s s u u a s a p p p u p a , # m ^ =.u.r.6.y.6.y.w.w.&.^ m # 1 f a q q q q q q f f f u s u i i ",
"3 f u u i s u a p p p p e e w X b X.z.6.<.>.;.;.;.;.;.;.;.2.y.z.+.N o y p e p q q p i i f u s i s s ",
"4 s u s s s f a s f s u a , $ Y q.6.1.>.;.;.;.>.;.;.;.;.;.>.>.1.6.0.D $ r f p q a a p p s f s s s s ",
"4 s s s s f f f s s s s 1 h $.u.,.;.;.;.;.;.;.;.;.;.;.;.;.;.;.;.;.1.n.} & 2 q q a a q p p s s a u a ",
"6 s s s f i f i s a a 1 & *.t.:.;.;.;.;.;.;.;.;.;.;.;.;.;.;.;.;.;.;.,.t. .& 2 a a p p p s s u s u u ",
"6 s s f f i f f f t t $  .t.:.;.;.;.;.;.;.;.;.;.;.;.;.;.;.;.;.;.;.;.;.:.i.| X t a p p u u s s s i s ",
"4 f s s f f f i a y o R i.<.>.;.;.;.;.;.;.;.;.;.;.;.;.;.;.;.;.;.;.;.;.;.,.i.F X d p p p q u s s a p ",
"4 f s s f f i s p 2 c x.1.;.;.;.;.;.;.;.;.;.;.;.;.;.;.;.;.;.;.;.;.;.;.;.;.1.x.v 2 a p u u u q u u u ",
"4 f f s i f i i f X ^ 6.>.;.;.;.;.;.;.;.;.;.;.;.;.;.;.;.;.;.;.;.;.;.;.;.;.>.3.@.* s p u i u u u a a ",
"4 f f f s s i t r z 7.<.;.;.;.;.;.;.;.;.;.;.;.;.;.;.;.;.;.;.;.;.;.;.;.;.;.>.:.u.B > e p u u s s a s ",
"4 g f f u i i t # o.y.;.;.;.;.;.;.;.;.;.;.;.;.;.;.;.;.;.;.;.;.;.;.;.;.;.;.;.;.y._ X w i s s f s s s ",
"4 f f f f i i w j j.1.;.;.;.;.;.;.;.;.;.;.;.;.;.;.;.;.;.;.;.;.;.;.;.;.;.;.;.;.3.f.$ r s s s u s s p ",
"4 f i d f a f 1 m z.1.;.;.;.;.;.;.;.;.;.;.;.;.;.;.;.;.;.;.;.;.;.;.;.;.;.;.;.;.1.x.c 1 s s s s s u u ",
"4 f i i f f K < C b.,.;.;.;.;.;.;.;.;.;.;.;.;.;.;.;.;.;.;.;.;.;.;.;.;.;.;.;.;.,.c.V < f s f s s p p ",
"4 f i i i f K < A u.,.;.;.;.;.;.;.;.;.;.;.;.;.;.;.;.;.;.;.;.;.;.;.;.;.;.;.;.;.,.u.S < f i a s s s s ",
"4 f i i s f f @ S r.:.;.;.;.;.;.;.;.;.;.;.;.;.;.;.;.;.;.;.;.;.;.;.;.;.;.;.;.;.-.r.T % K u u s f s s ",
"4 f f f a f K ; ~ w.:.;.;.;.;.;.;.;.;.;.;.;.;.;.;.;.;.;.;.;.;.;.;.;.;.;.;.;.;.-.y.T @ K f f f i s s ",
"4 f d f f a f < P t.,.;.;.;.;.;.;.;.;.;.;.;.;.;.;.;.;.;.;.;.;.;.;.;.;.;.;.;.;.,.i.T @ f f i p p s p ",
"6 f s s f f a , C c.,.;.;.;.;.;.;.;.;.;.;.;.;.;.;.;.;.;.;.;.;.;.;.;.;.;.;.;.;.,.b.D + i p a a p s s ",
"5 f s s a s f 2 c k.1.;.;.;.;.;.;.;.;.;.;.;.;.;.;.;.;.;.;.;.;.;.;.;.;.;.;.;.;.1.x.v 1 i p p p e u a ",
"3 f i s s p a r & g.5.;.;.;.;.;.;.;.;.;.;.;.;.;.;.;.;.;.;.;.;.;.;.;.;.;.;.;.;.3.d.& r i p u e p s q ",
". s i s s s a r @ a.y.;.;.;.;.;.;.;.;.;.;.;.;.;.;.;.;.;.;.;.;.;.;.;.;.;.;.;.;.y.W @ t u q q p q s u ",
"6 s s s i e u t , Z u.>.;.;.;.;.;.;.;.;.;.;.;.;.;.;.;.;.;.;.;.;.;.;.;.;.;.;.:.e.b 7 u u u 0 u u u u ",
"3 s u p i q q i i # / 6.:.;.;.;.;.;.;.;.;.;.;.;.;.;.;.;.;.;.;.;.;.;.;.;.;.>.6.{ o a u u 0 u u u u u ",
"6 s u p q s q q s < m v.1.;.;.;.;.;.;.;.;.;.;.;.;.;.;.;.;.;.;.;.;.;.;.;.;.1.x.c ; e e u u 0 0 u u u ",
". s q p s u s s u t X o.i.:.;.;.;.;.;.;.;.;.;.;.;.;.;.;.;.;.;.;.;.;.;.;.>.i.H X e 0 u 0 u u 0 u u u ",
"6 s u s s q s u p t r = $.t.:.;.;.;.;.;.;.;.;.;.;.;.;.;.;.;.;.;.;.;.;.:.t.#.o 7 0 u u 0 u u 0 u u u ",
"5 s u p q s u u p p a 2 z g.r.:.>.;.;.;.;.;.;.;.;.;.;.;.;.;.;.;.;.;.:.i.g.& > u 0 0 u u 0 u u u q u ",
". s p u s p s u u u p t ; x d.u.,.;.;.;.;.;.;.;.;.;.;.;.;.;.;.;.;.,.n.$.& - e q u 0 u u 0 u 0 u q u ",
"6 s p p s s u s s s p f f r & ( c.6.1.:.>.;.;.;.;.;.;.;.;.:.:.1.y.c...& 2 a u 0 u u 0 u u 0 u 0 u u ",
"3 s u u u s s a p s s s s s 2 # N O.v.y.2.>.;.;.;.;.;.;.>.2.p.k...B @ 7 u a 0 u a 0 0 u 0 0 u u u q ",
"3 s s a s u u s p p s s s s s s w o m ~ =.w.i.y.w.y.y.r.8.%.I c o 7 a a a u u 0 a 0 u 0 0 u u 0 q u ",
"5 f u a s s s s s s s s s s s s t y 2 @ = b J ) W ! E Z x # X > e e 0 a a 0 u u u u u u 0 0 0 a u u ",
"6 s a f s s s i p s s s s s s s f a g a q 6 : O + - - 7 q u u u a a a a a 0 u 0 0 a a 0 0 0 0 0 q u ",
"3 s f a u a u u a p a a s s s t u p a p a q e t t t t p s q u u a e e u 0 0 0 a 0 a 0 u u 5 u u 0 u ",
"3 s f a a u u s a p a a f f s s p e a a p p q p u u p p u u i i e e 0 u 0 0 0 a a 0 a 0 u 0 u 5 0 q ",
"3 u a f a u u p u a f a f a f s p a p p p p u u e s q s t u u s u u a a 0 u 0 u 0 a u u u 0 0 q 0 u ",
". u u u u u 0 q u a f a f f f f p a p p p p u p u q p p p s s q u u a e a a u u u 0 u u u q u q 0 0 ",
"3 u q q u u 8 8 8 f g f f f s s f f a a a s u a i s s i s p s u u u e u a a u u q u u 0 u 0 q 0 0 u ",
"3 u u 9 8 8 8 9 8 u i f f f f f f a a a s u i u a s a s s u u u q u u u 0 e e 0 u u 0 a u a u u 0 0 "
};
