/* XPM */
static char *_7374_dc1f4cf47d78b280ebb454acb647f3b0b960407912dff7192f95f5dc33fc3605[] = {
/* columns rows colors chars-per-pixel */
"50 50 222 2 ",
"   c #03705F",
".  c #0B6B5F",
"X  c #0F6F64",
"o  c #106D62",
"O  c #027563",
"+  c #017A66",
"@  c #0C756A",
"#  c #047D6C",
"$  c #0B7C6C",
"%  c #0B7666",
"&  c #127366",
"*  c #177A67",
"=  c #14766A",
"-  c #147B6D",
";  c #197C6E",
":  c #19766C",
">  c #0D7E71",
",  c #167D70",
"<  c #197E71",
"1  c #0B826E",
"2  c #00816F",
"3  c #10816C",
"4  c #048372",
"5  c #0B8473",
"6  c #078876",
"7  c #0C8A75",
"8  c #0C8779",
"9  c #068C7C",
"0  c #0C8C7B",
"q  c #138474",
"w  c #1B8375",
"e  c #138A75",
"r  c #1B8C75",
"t  c #148679",
"y  c #1C857A",
"u  c #148C7A",
"i  c #1B8C7C",
"p  c #0D917D",
"a  c #07907E",
"s  c #13927D",
"d  c #1B937D",
"f  c #228A77",
"g  c #21867B",
"h  c #238C7D",
"j  c #22947E",
"k  c #23987E",
"l  c #2F957F",
"z  c #0B8F81",
"x  c #148F81",
"c  c #1D8E81",
"v  c #0D9482",
"b  c #0F9888",
"n  c #0F9886",
"m  c #149583",
"M  c #1B9482",
"N  c #149984",
"B  c #1B9A85",
"V  c #1C9688",
"C  c #169C8A",
"Z  c #1C9C8A",
"A  c #179788",
"S  c #1B9F91",
"D  c #228E83",
"F  c #249484",
"G  c #299482",
"H  c #239C83",
"J  c #2C9B84",
"K  c #259589",
"L  c #239C8B",
"P  c #2A9C8B",
"I  c #2E9788",
"U  c #319784",
"Y  c #339B85",
"T  c #339E8B",
"R  c #249E91",
"E  c #1DA18D",
"W  c #1EA390",
"Q  c #24A086",
"!  c #2AA286",
"~  c #24A38C",
"^  c #2BA48C",
"/  c #2EAA8E",
"(  c #33A38C",
")  c #39A38E",
"_  c #33AB8E",
"`  c #39AA8C",
"'  c #36B28F",
"]  c #24A492",
"[  c #2BA593",
"{  c #24A994",
"}  c #2CAA94",
"|  c #2AA599",
" . c #2DAC9B",
".. c #33A693",
"X. c #38A692",
"o. c #32AC94",
"O. c #3AAC93",
"+. c #33AD9B",
"@. c #3BAC9B",
"#. c #34A798",
"$. c #35B393",
"%. c #3BB294",
"&. c #35B29B",
"*. c #3BB39B",
"=. c #3DBA9D",
"-. c #33B89B",
";. c #2FB59A",
":. c #32AFA1",
">. c #2DB0A0",
",. c #34B2A4",
"<. c #3CB4A1",
"1. c #3CBBA2",
"2. c #3EBBAB",
"3. c #409E8C",
"4. c #42A692",
"5. c #42AC94",
"6. c #43AE9A",
"7. c #4CAD9A",
"8. c #48AA93",
"9. c #43B395",
"0. c #49B595",
"q. c #4CB995",
"w. c #44B49B",
"e. c #4AB59C",
"r. c #43B99C",
"t. c #4BBC9C",
"y. c #51B79A",
"u. c #54BC9D",
"i. c #5AB99B",
"p. c #43B6A3",
"a. c #44BCA3",
"s. c #4BBBA2",
"d. c #45BCA9",
"f. c #4CBDA9",
"g. c #4BB7A1",
"h. c #53BCA4",
"j. c #5CBDA2",
"k. c #53BEA9",
"l. c #56B9A5",
"z. c #3EC3A8",
"x. c #4DC19F",
"c. c #53C19E",
"v. c #58C59E",
"b. c #42C3A5",
"n. c #4CC2A4",
"m. c #4BCBA7",
"M. c #43C2AA",
"N. c #4DC3AB",
"B. c #4CCCAB",
"V. c #47CAAB",
"C. c #53C3A4",
"Z. c #5BC4A3",
"A. c #53CAA6",
"S. c #5CCAA4",
"D. c #54C3AB",
"F. c #59C6AC",
"G. c #55CAAB",
"H. c #5CCBAB",
"J. c #4DD1AB",
"K. c #53D1AD",
"L. c #5CD1AE",
"P. c #4ECFB1",
"I. c #4FC4B2",
"U. c #5DC6B3",
"Y. c #54CBB2",
"T. c #5CCCB2",
"R. c #58C8B5",
"E. c #4ED4B3",
"W. c #52D2B2",
"Q. c #5DD2B3",
"!. c #5FD3BE",
"~. c #63CAA6",
"^. c #64C5AA",
"/. c #63CCAB",
"(. c #6BCDAB",
"). c #65D2AD",
"_. c #69D3AD",
"`. c #63CCB3",
"'. c #6ACCB2",
"]. c #64CDBA",
"[. c #76CFB1",
"{. c #65D4B3",
"}. c #6BD5B4",
"|. c #66D8B5",
" X c #6CDAB5",
".X c #64D4BC",
"XX c #6DD5BB",
"oX c #6DDABC",
"OX c #67D9B8",
"+X c #73D2B3",
"@X c #7CD4B6",
"#X c #72D5BB",
"$X c #73DBBD",
"%X c #7ADBBC",
"&X c #79D8B8",
"*X c #71D3AA",
"=X c #6BD6C2",
"-X c #6DDBC3",
";X c #74DBC3",
":X c #7BDDC3",
">X c #75D9C4",
",X c #7CE1C4",
"<X c #7CE2CB",
"1X c #74E1C8",
"2X c #7BEBD3",
"3X c #83DBBD",
"4X c #84DABA",
"5X c #85E0BF",
"6X c #83DDC1",
"7X c #86DEC8",
"8X c #83E1C4",
"9X c #89E2C4",
"0X c #83E5CA",
"qX c #8AE6CC",
"wX c #8DE9CD",
"eX c #80E8CF",
"rX c #94EACD",
"tX c #88EAD1",
"yX c #91EDD4",
"uX c #9CEAD0",
"iX c #8AF0D9",
"pX c #94F1DA",
/* pixels */
"$.' s.O.c 5 ^ w.S.S.H.x.*.&.1 1 ' Z.(.&X3X9XrX%Xp.5 6 x R N.-X~.~.~.+X:X/.6.x > l.7X7X4.H 1.-.} Z b ",
"$.' 6.e.P i d _ %.t.q._ Q Q 5 *.G.H.}.(.(.^.(._.a.8 8 ] @.T.H.{. X$X_.(.#XU.P u F.6X0X:X^ M *.} A v ",
"$.$.%.r.X.P 5 B H s d d Z 0 s b.$.C./.~._._.).n.&.0 | o.a.W.K.).|.$X$X).`.].[ u g.XX/.#X-XH p E v v ",
"$.$.%.9.w.( L 5 m 0 v B 8 + 5 / / =.)._._.).H.r.E C ,.} a.E.K.A.A.A.H./.~.Y...e r.T.(.^.|.G.d 4 v | ",
"$.$.%.9.g.X.^ u 5 8 0 8 O.g.u M / ^ x.|.OXA.r.&.x >. .} z.E.J.J.B.J.n.n.H.G...u w.H./._./.C.&.0 S >.",
"Q ! ( O.w.5.P L # # e a.>XeXY.u ~ ~ ! =.*./ &.Z A ,. .+.$.V.E.J.J.E.r.a.H.F...u %.A.)._.).C.&.C V ] ",
"s r k O.e.9.P L 5 # *.H.Z.Z. Xw.0 W E p p { ;.0 ]  .:. . . .1.z.z.1.Q s.H.F.#.u X.G.{. X Xx.;.Q x R ",
"5 e J 9.0.w...F t i t.c.Z.Z.S.{.Q p E v N W n 7 R +.&.&.] | ~ E Z s _ G.G.D.T t ^ n.A.L.n.} [ E c R ",
"J ( 9.9.q.t.X.c t r w.c.S.~.~.L.b.7 0 s 9 0 # 8 L  .@.<. .Z V m B o.G.A.`.g.K u L 1.} ~ N C W A x R ",
"0.e.e.q.y.4.F D t i O.t.).).).x.r.B # q [ a...e c K <.p.d.p.<.1.N.F.F.H.`.) D c s  .Q m p v v 6 0 S ",
"O.4.4.Y h ; w D w > L Q *.m.n._ } L 1 g.:XqX:Xg.u M F ..p.s.k.R.F.k.g.6.U g K c > 0 0 0 s d M u 4 A ",
"* * * & = , i M $   5 7 e B H ~ { 7 *.$X9X3X@X Xf.e M c y h G G h f w < < y D i t X.s.!..XOXT.Y.L x ",
"& & : : < < w & ; J T i 1 7 A ] s Q |.#X+X4XuX5XXXw.t c y w w < w y y g c y i - s.;X;X,X,X,XOXF.&.0 ",
": = o o X o & ( k.{.:X;Xw.7 5 0 0 A.}.~.*X4X4X5X XQ.+.5 t q , , ; ; = = = = @ P G.D.{.'.(./.).A.a.d ",
"i.^.j.T =   U h.h.h.^.#XoXD.u + O.Q.H.~.)._.*X&X/.r.V.~ # M ..) 4.8.7.7.7.T u B ;.[ %.n.L.|.OXn.r.~ ",
"i.j.#X'.6.$ ( 9.u.Z.u.v.C.s.@.e n.A.H.~.)._. XOX$.Z } } u Y.`.-X:X0X9XeX<X;Xa.6 0 p s N Q o.=.$.-.O.",
"9.5.y.Z.n.r J %.c.v.Z.Z.%.o.[ N b.r.H.).{.|.K.' N p E v Z G.D.{.(./.S./.L.n.[ 6 m V m 0 0 p m E { &.",
"0.q.q.c.t.k k %.n.S.S.r.! ^ m 0 &./ *.t.x.$.E p n n 0 # 7 &.w.G.{.).{.}.A.%.m | I.d.+.| S m z z C ] ",
"q.q.q.0.t.k d / q.m.r.! ~ Z # # Z { ~ ~ E s v n a 8 J s.! d %.=.G.|.{.b.$.Q B <.k.].XXk.+.+. .A 9 9 ",
"q.q.9.( *.d u L d H B Q B 5 t u 7 s { { E C n 0 N B.eXiX2XL L o./ $.$./ { m L f.>X#X=X1X!.@.,.d.C 9 ",
"0._ k d ^ t 1 s 0 p B s u [ f.].`.P 8 A Z A 0 o.Q.$X{.~.oXn.5 ] E N N E C v | R.Y.C.n.n.W.W.&.&.&.v ",
"r e d d d O O 5 0 9 0 s | f.].U.XX<Xd.u 4 # } Y.`.).(._.H.C.u 2 0 7 7 0 9 A o.D.T.C.m.m.B.W.B.,.+.~ ",
"7 u d 5 3 G T t # 6 m R } n.r.a.g.l.:XU.P 8 *.=.H._._.{.n.%.e ) s.h.r.K 4 ] [ N.Q.G.A.B.B.W.E.a.<.[ ",
"1 1 e k l.].=Xk.# x R V / b.z.m..Xk.l.>XR.P B o.x.|.|.C.r.L O.eXyXqX0X;X[ A [ @.H.F.a.=.b.b.-.$.s...",
"3 l 0.h.^.^.^.D.t V S L ] b.b.=.b.T.s.h.XXI.L A } -.$.} ~ ! OX X~.~./.{.M.u L K g.{.w.Q ~ E Z ^ N.O.",
"t.C.y.Z.^.(.Z.e.0 Z L R B &.B.b.a.s.n.h.F.F.,.m A ~ m Z s b././.).).).A.1.u x K T Y.Y.o.B N L p.F.O.",
"(.u.0.0.0.u.h.9.t L ] P L ~ -.M.b.*.*.D.D.p.#.R 4 5 u 8 7 M.n.).}. XS.=.~ 6 5 u F ..T.F.C.n.G.Y.U.( ",
"y.y.9.q.q.t.e.` 5 L [ [ M L Z Z ~ M %.D.F.@.L R 1 F =XR.s o.=.r.C.n.$.! e a.=Xd i G X.h.F.D.h.u.) f ",
"5.0.0.q.c.9.%.k $ F [ @.[ m B m s H n.D.D...F V i XXpXpXF.d o.E B / { u j.yXyX}.j i K F h h h y w h ",
"9.0.q.c.u.` O.e + F K +.*.O.L Z ~ s.N.F.p.F K e O.0X3X@X,X%.s Z C E s a.0X+X+X%XT.r c K c y h g w w ",
"9.q.c.t.` ^ J + + 5 F F w.p.s.s.n.D.F.s.P V F i /.:X(.~.).{.B p m 0 p.;X/.~.(.(.|.a.w q , , ; < w r ",
"k ` ' ( k k q w.k.y q F G 6.h.C.F.F.e.G D R t ..{. X_._.).T.*.2 6 -.Q.H.F. X}.}.G.s.F $ I 8.g.j.`.F.",
"1 5 r d u e e.#X:X'.f i F h T 7.6.( h F D D 5 p.C.). X_.G.r.+.4 ~ M.<.%.x.OXOXH.r.$.s s.0XwXwX:X}.Z.",
"1 # # 5 5 O.C.j.i.+XF.r q D , < ; w D K D , 5 @.%.C.L.n.o.o.M # d } ] B ! a.a._ / [ K OX%X6X(.~.~.S.",
"P T i   r *.0.u.u.u.'.h.q q y < w y D y > > > m } E / ~ { B F o.P d m N E { E m { N ~ B./.^.(.(._.v.",
"g.h.X.i 1 ^ 9.c.c.v.Z.~.s., , < w , , h 7.]..XP m N N W m B k.-X-XT.o.d m A C m s 7 7 *.x.H.).{.|.x.",
"w.F.h.T 5 u o.t.C.S.S.v.k.o.@ @ - J u.+X6XwXyX;XL 0 n 0 A <.;XqX0XtX0X].@.V 8 4 ..=X9.d *.r.n.n.=.! ",
"$.X.t.@.K 5 J %.C.S.H.9.o.o.q f s./.}.&X%X4X3X#Xa.6 4 A | I.XX^.^.^.(.>X=Xg.m 5 U.eXiXh.r &.=.[ A s ",
"$.$.%.t...d e Q _ ' o.! B B e d.n.G./.~.~.~.(.H.a.0 m | *.Q.H.}.%X8X#X^.XXT.] u k.:X$X<Xt.e } } b 9 ",
"' ' %.0.@.^ u M B 8 s B B 6 s *.O.c./._._._.L.n.} p :.[ 1.Y.K.L./.{.OX).^.].[ u g.'.~./.1X&.0 n z b ",
"' ' %.9.e...L 5 s 0 v 0 e 5 4 ~ ~ $.H.}._.|.x.r.B ] ,. .b.K.J.B.K.A.A.G.~.T.[ u w.`._.~.).H.~ 4 A >.",
"' $.O.5.e.X.P V 4 5 6 d D.=XQ u / ~ w.L.L.x.=.} x ,. .#.1.W.J.J.J.A.b.n.H.Y...u *.F.~._.).n.&.0 S | ",
"d k ! O.w.6.P L 1 + k F.#X$XoXM B / E / ~ ~ -.A Z :. . .} z.E.E.E.J.&.t.F.F...e %.A._._.}.A.&.Z V | ",
"u u k O.e.e.P K q - s.C.Z.v.'.D.7 E E v p { { 0 ] :.&. . .} } ;.;./ B N.H.F.X.t o.C.{.OX|.q.} ~ x | ",
"e e ( 9.0.e.X.F e i t.C.Z.~.Z.{.o.6 E p b S u 8 R +.<.+.] ~ W m p d *.G.H.C.P t ^ a.n.n.&.~ { E x R ",
"` %.9.0.t.g...i u r %.C./.S./.S.n.s 6 9 8 u # t V [ <.p.<.~ Z Z [ b.F.G.H.g.K i B -./ B N N E m 8 R ",
"0.e.q.e.6.Y h c y t o.%.H.).).r.$.~ + d k.].D.d u V #.p.d.f.f.D.Y.Y.F.T.k.I F c u ] C a a 9 0 4 0 Z ",
"U Y l f ; - w D q > d d ! r.%.^ } d u `.0XqX;XT.F c c I X.w.g.l.e.9.) U h y D c # 5 d B ~ [ [ ~ 0 A ",
"& & & & - , g h X % 5 5 5 p B ~ E e D.%X%X4X6X@XF.j M c q < D < g ; ; < < y D y G D.XX:X0X<XXXT.[ 0 ",
"& : : : = ; , @ D p.d.| 9 9 m E 9 &.OX*X[.7XuXwXXXD.i i g y < < < g g g g y < w T.=X&X@X@X@X+XD.*.s "
};
