/* XPM */
static char *_8479_bc643b6f7105c3999d1d42b2c28eaca52f2a177509459ea85dfdeee7e60bc533[] = {
/* columns rows colors chars-per-pixel */
"50 50 241 2 ",
"   c #493800",
".  c #543D00",
"X  c #5D3E00",
"o  c #4E4500",
"O  c #5B4401",
"+  c #544A01",
"@  c #5C4D01",
"#  c #5C490A",
"$  c #514000",
"%  c #4F5502",
"&  c #545404",
"*  c #5B5405",
"=  c #545B02",
"-  c #5B5B04",
";  c #545609",
":  c #5C5509",
">  c #565B0A",
",  c #5C5D0C",
"<  c #5B5E12",
"1  c #5E5D1B",
"2  c #575910",
"3  c #634502",
"4  c #644C00",
"5  c #6C4B01",
"6  c #674908",
"7  c #734D02",
"8  c #744600",
"9  c #645303",
"0  c #6B5504",
"q  c #645C04",
"w  c #64560C",
"e  c #6E530A",
"r  c #635D0C",
"t  c #6C5C0C",
"y  c #6E5C04",
"u  c #735903",
"i  c #7B540C",
"p  c #725D0D",
"a  c #755507",
"s  c #714F10",
"d  c #635D13",
"f  c #665916",
"g  c #715C13",
"h  c #735D1C",
"j  c #7A5511",
"k  c #556105",
"l  c #5C6304",
"z  c #5E6904",
"x  c #56620B",
"c  c #5D630D",
"v  c #5D6A0D",
"b  c #5E6412",
"n  c #556D12",
"m  c #5D6B12",
"M  c #5F6618",
"N  c #5E7016",
"B  c #636106",
"V  c #6A6207",
"C  c #63620D",
"Z  c #6A630D",
"A  c #636A0D",
"S  c #6A6A0E",
"D  c #626A06",
"F  c #78660D",
"G  c #68700D",
"H  c #636513",
"J  c #6A6513",
"K  c #646B14",
"L  c #6A6B15",
"P  c #64641B",
"I  c #6B661B",
"U  c #656C1A",
"Y  c #6A6D1A",
"T  c #726414",
"R  c #7A6612",
"E  c #726B15",
"W  c #726B1B",
"Q  c #7B6B1B",
"!  c #786719",
"~  c #657115",
"^  c #6A7215",
"/  c #65721A",
"(  c #6B721B",
")  c #6B781E",
"_  c #72721C",
"`  c #757219",
"'  c #666620",
"]  c #6D6622",
"[  c #6B6D22",
"{  c #666C24",
"}  c #726E24",
"|  c #746E2B",
" . c #786728",
".. c #677422",
"X. c #6C7222",
"o. c #6E7921",
"O. c #747224",
"+. c #7B7424",
"@. c #73742A",
"#. c #737929",
"$. c #747B25",
"%. c #777237",
"&. c #8B5D0A",
"*. c #86590A",
"=. c #875E11",
"-. c #8B6609",
";. c #986607",
":. c #816D1B",
">. c #976816",
",. c #8A7417",
"<. c #997618",
"1. c #AB7616",
"2. c #A8720E",
"3. c #937927",
"4. c #8B7126",
"5. c #A87C29",
"6. c #B37D27",
"7. c #A66C23",
"8. c #96851D",
"9. c #BB8306",
"0. c #A98216",
"q. c #BB851B",
"w. c #BE9C07",
"e. c #9B8B25",
"r. c #9F8224",
"t. c #9B8A3D",
"y. c #AC8C2B",
"u. c #A5852A",
"i. c #B88523",
"p. c #B3922F",
"a. c #A68834",
"s. c #B49533",
"d. c #B8993D",
"f. c #A99034",
"g. c #BDA43D",
"h. c #C68502",
"j. c #C98908",
"k. c #CD9C06",
"l. c #C79709",
"z. c #D69403",
"x. c #D69B08",
"c. c #C68E16",
"v. c #CC9314",
"b. c #CB9516",
"n. c #D49B16",
"m. c #CAA30A",
"M. c #D4A205",
"N. c #DBA604",
"B. c #D2A40C",
"V. c #DAA50B",
"C. c #D3AB0D",
"Z. c #DDAA0D",
"A. c #DEA800",
"S. c #CCA316",
"D. c #CCA419",
"F. c #DCA415",
"G. c #D5AC14",
"H. c #DBAA13",
"J. c #D7AD1A",
"K. c #DBAC1C",
"L. c #D5A417",
"P. c #DBB213",
"I. c #DEB31C",
"U. c #D9B20F",
"Y. c #E1AC0A",
"T. c #E3B30B",
"R. c #E7B90E",
"E. c #E3AF13",
"W. c #E1AA19",
"Q. c #E4B313",
"!. c #E9B915",
"~. c #E4B61A",
"^. c #E5B91B",
"/. c #EDBC1A",
"(. c #E8B618",
"). c #F1BD1C",
"_. c #F9BD1E",
"`. c #CB9722",
"'. c #D49B26",
"]. c #C89A38",
"[. c #D49E33",
"{. c #CFA926",
"}. c #D6AC2A",
"|. c #D7A926",
" X c #DEB325",
".X c #C9A433",
"XX c #D7A938",
"oX c #DBB737",
"OX c #E4A925",
"+X c #E9B424",
"@X c #ECBB22",
"#X c #ECBB2B",
"$X c #E5B62A",
"%X c #F3BC2B",
"&X c #F7B826",
"*X c #E5AE37",
"=X c #E4B635",
"-X c #EABB33",
";X c #E6B739",
":X c #F5BA36",
">X c #EDC11D",
",X c #EFC115",
"<X c #F2C51D",
"1X c #F6C91E",
"2X c #EFC222",
"3X c #FBC425",
"4X c #F4C924",
"5X c #F8C529",
"6X c #FDD228",
"7X c #EFC23A",
"8X c #F1C334",
"9X c #F2C43C",
"0X c #FFCC3C",
"qX c #FDC636",
"wX c #BF9D45",
"eX c #CEAA4A",
"rX c #C7A745",
"tX c #D5AB46",
"yX c #DCB748",
"uX c #D3AD54",
"iX c #CCB45D",
"pX c #DAB555",
"aX c #CFB547",
"sX c #E5BB45",
"dX c #E9B746",
"fX c #F6BF42",
"gX c #E5BB56",
"hX c #E3AF41",
"jX c #C0AD60",
"kX c #D6BC63",
"lX c #CFB96D",
"zX c #DBC34C",
"xX c #DAC351",
"cX c #E9C548",
"vX c #FECC44",
"bX c #F6C644",
"nX c #E6C757",
"mX c #F5C857",
"MX c #FFD250",
"NX c #DAC167",
"BX c #F3CF67",
/* pixels */
"/ ^ ~ K Y K K U ( M x U ..U U ' [ I Y ' P P ' 1 1 1 1 1 1 ' ' ' U ~ M K / / H c x H K K C C H K K K ",
"~ Y ~ Y / Y U ~ U b M P { U U U [ U [ U P P P M ' ' ' ' ' ' @.X./ Y ~ / ( ( m c v H K K K K L K K K ",
"K ^ K ^ ~ Y Y / K b U U [ M P [ K L L M M M m b [ [ ' U [ X.#.#.Y / / / ( / K c K H L K Y Y J K / K ",
"K L L ~ Y / Y Y b b P Y P < b ..M v m v v c c v U / U ~ / ( o.o.( ( _ ( ( Y K b ~ K b K ( ( ^ H L Y ",
"L L ^ L L / Y Y , , M P d > < U K m n m m A N v ~ v v v m K ~ / ( ( _ X.Y L H v L H b K / _ / K K H ",
"^ ( Y L Y K L L b > b H P < M P ) / / / / / / / v v v v v v m ~ L ( _ ( L H c C K H K K Y / K H v H ",
"_ ( ( L L H K H L < < P P P P P ........) ) / / / / N v v m m m L Y _ Y H , , c v H K L K K K L H H ",
"_ _ ( Y L K H H I H < L [ Y P ' ' { { / / / / / ) ) / m M n M K H W W W C , - , , C L K H v H K K K ",
"L ( W L H H J L > H P I I I P < 1 { %.@.[ Y ( $.~ ^ ( L K K P P > , E O.J r r L C c , v b K Y ( K K ",
"( E L L Z , C C , d d H [ ] [ ' %.%.%.| [ I L S * l J L I Y } O.4.E d E +._ r & , c C C H K / ) ~ K ",
"L L L Z r * : , r : > d I } } | %.| f # + + - & * q V S J t d w T T Q +.Q t - r , - c b K m K K ( ( ",
"J J H B , - - r , & & r I I I ] 1 . O O 4 y F ` 8.8.e.e.,.F y 9 O @ w T J r r J & & - x H v b v ( ( ",
"Z Z Z r , r H J I r r f H : ; : . s 4.a.g.aXzXnXzXzXnXxXaXg.s.f.r.:     t W J r * - , b H m m H L L ",
"H Z H B r r J W +.I I I d o o w j 5.uXBXBXBXzXcXoXoXcXzXcXnXnXnXiXt.g + @ 9 t J q , C K K U / / m H ",
"J Z Z r - r Z I W I I W d : I t.wXeXgXmXcXoXG.w.w.w.m.D.{.}.oXyXkXlXjXt.t o * _ r C H H K Y ) ..H K ",
"E L C q - - r H d 2 f W f T t.kXgXhXtXXX}.{.J.U.m.m.k.w.w.l.D.}.pXkXNXiXa.T 9 9 r , - x x m m ~ K K ",
"Z B D B l l x b 2 1 f w ! d.uXgX[.'.c.b.b.v.x.V.H.V.k.k.k.k.z.l.}..XsXnXuX,.4 $ r , & % > N N N m C ",
"_ ` S D l l v b { ] h  .a.eXpXXX`.c.c.n.F.n.W.(.Q.E.Y.Y.V.V.x.k.L.n.}.sXyXs.u . O r H , x n N / m K ",
"+._ G D z l v H @.] h 3.wXgX[.c.9.h.v.'.+X+X@X5X@X).(.Q.Q.E.Z.B.B.S.D.XXnXpXr.3   r } [ b x m / L K ",
"O._ S l z l z K d w h a.pXgX[.9.9.j.n.+X%X+X(./.3X<X).).).(.E.Z.H.K.L.{.fXBXrXF   w +.#.U m m m Y K ",
"_ Y A z z D A L : w 4.wXgXhXv.h.c.v.OX#X@XE.Z.T.3X1X,X/./.(.T.Y.Z.Q.F.S.;XnXaX3.. 0 W O.[ Y M c Y ~ ",
"I Y L K G G ^ _ J ! a.uXgX'.j.h.n.F.$X%X/.H.A.Y.1X,X/.!.!.!.(.E.N.Y.H.n.}.sXtXf.3 9 t I I Y U b / Y ",
"P Y / ^ G G S S ! Q a.uXdXv.h.z.F.K.+X%X@XQ.Z.!.1X,XR.T.T.!.(./.N.Y.Z.H.*X;XXXs.4 0 t r H P Y L / Y ",
"P P L K A D l - T -.5.tXhXj.h.V.V.F.~.2X@X!./.4X1X/.T.T.T.!././.N.N.E.$X:XcXyX].4 0 t : ; < Y X.K Y ",
"P 2 % = k k = & q R p.tXdXOXz.z.k.m.P.(.>X>X>X>X1X1X<X<X4X4X2X(.T.Y.N.H.-XfXaXs.4 4 w r d H K b Y K ",
"1 1 , > = = l B t R a.tXdXOXx.z.k.B.H.~.>X>X1X1X6X6X4X6X6X4X2X^.Y.A.N.F.=XsXXXy.4 4 9 q d < M b H v ",
"2 1 M , = - B _ Z Q u.eXdX*XF.z.M.B.G.P.^.>X>X1X1X1X>X>X^.~.I.Z.N.V.F. X;XyX].u.5 4 * : , , M b , c ",
"' M H b k l A ( I Q 3.wXgXfXOXx.k.G.C.C.P.P.^.>X!.P.P.P.P.G.G.B.B.Q.+X#XsXXXy.,.0 q : , , b M N b v ",
"| I b , z v b H f J :.a.rXsX-XI.S.m.m.m.m.C.P.P.U.P.P.P.J.J.J.K.I.#X9XcXoX.X<.u p t r d b M K / K H ",
"| ' < c K K H x > d T ,.p.yXcX7XK.J.G.G.C.C.U.U.C.G.G.P.J.I. X$X#X8XbX;X.Xy.-.4 t J H K U N N ~ m H ",
"] ' [ Y / U U M P P q V <.g.oXoX$X$X$XI.I.P.P.U.P.P. XI. X X-X7X7X7XoX`.0.-.u 4 t d I P m N N N H K ",
"d ' O.O.) ~ / ..#.O.t 0 F y..XXX9X8X8X#X@X^.I.I.2X4X4X8X8X9XbXMXdXdX}.0.-.u 0 @ r H H L ~ K m m ~ K ",
"U U / / / ~ N U U W ! t 5 =.5.].;X:X-X%X&X3X3X3X&X3X5X0XvXvXvXfXtX].6.>.u 5 q V B A A K S S B - ( Y ",
"U m N ~ N ~ U m K Y J g e i 4.5.i.`.*X:XvX0X&X&X3XqX0XvXvX:X*XhX6.7.*.8 4 9 q - A A G S ^ E V B L L ",
"b m K M m m m b L H J t e e j *.2.1.q.c.'.OX+X&XOX:XqXfX;X[.i.1.>.*.8 8 u R L B / ^ ^ ^ ^ E S r L L ",
"H H K K K H m m L H t t t e 7 7 >.;.;.;.2.9.c.'.c.`.[.[.].6.>.*.*.*.8 j R ` _ ^ ^ / G ^ E E Z q C H ",
"K J L L Y K K H L H r r t g t e 7 i =.>.2.>.2.;.2.1.6.6.5.>.=.j 8 s p F T L K ~ ~ K A A S Z Z q r c ",
"L J L I Y K K L L H Z r J T T T s s s i i *.*.&.>.&.*.=.j s s 6 e p ! ` L A v v m z x B B Z C r C H ",
"J J J H J J K C x H L L E Y W }  .h 6 X X 5 a =.8 5 3 3 6 3 # 6 T J W _ _ ^ ~ v c x k x C Z Z r r c ",
"r Z J Z H H Z c - H Y ( ( Y Y Y |  . .h g e 5 5 X X 3 3 w w f f I Z C K ) ) K k x k > - C Z J Z C c ",
"r C C C H C J H , v H / ( / / ( P I h J g T p p t 0 9 4 @ # : & , c , x x v x x x x , , B r d Z Z H ",
"C C H H J H J H H H H K ~ / / ( K L Z H Z t V p Z t 9 - * = * = v b v c b x x > x x c c C C H Z J K ",
"b C H A C J J J I J H H M m / ( K D l B q B V V F B q q - = = k - , , x x > = % c c H H H d H r , c ",
"b m H C H K J H L L L H m m m ~ A D l k - B B V V q - = % = % = = , c b H v x , c H H H J H H H * > ",
"m v m b K H H L J J L L K K m x G z z k - B B B B q - = = = = = L Y Y Y I I H Z d H H H J H < C C c ",
"n n m m K K L J Z J L I ^ K m x v z v l l B C C B B q k k k k z I I I J d , : : d d J I L M , > c C ",
"n n n m m L L J H H J H K H m m v v v v D C Z C c q - k l l v v C d : : * @ @ * r d H I P b , > x , ",
"n n m n M L L L J J H , v m K ~ v K H L H K H H * & * = > k v H , w : : r f I } , d H P K b > ; U Y ",
"N M U Y Y Y Y U Y L K K P ( Y U U L H < H P < , + & ; % ; ; < < < ; > d P P H P P P P U P b M P M M ",
"x b b H b b b b b x , b M K H b P M < > 2 > : ; ; ; ; ; : > < < > ; ; < M < > < < 2 > b 2 ; ; x M M "
};
