/* XPM */
static char *_3623_61a3358d2b8189357b6bd07585bb82aabe7bbd93b4e2c111bdae48405fae7249[] = {
/* columns rows colors chars-per-pixel */
"50 50 39 1 ",
"  c #4E5100",
". c #545502",
"X c #585704",
"o c #565904",
"O c #5A5C06",
"+ c #54570A",
"@ c #575908",
"# c #5B5D0A",
"$ c #5B5E11",
"% c #605F0C",
"& c #5C6106",
"* c #5E620B",
"= c #5F6212",
"- c #616506",
"; c #646806",
": c #61650D",
"> c #65690E",
", c #696E0E",
"< c #6A720E",
"1 c #636612",
"2 c #686714",
"3 c #656913",
"4 c #696D15",
"5 c #626619",
"6 c #666A1A",
"7 c #6A6D1A",
"8 c #6C7115",
"9 c #6D711B",
"0 c #717515",
"q c #71741C",
"w c #75791C",
"e c #666A20",
"r c #6B6F22",
"t c #6E7120",
"y c #727620",
"u c #757925",
"i c #787D23",
"p c #7C801F",
"a c #7D8122",
/* pixels */
"<<<7997e5e55r751t777e3=66*o&56p*3:>53&*3&*35<$=<e<",
"<8<<46r=5e55re6766666===366333=p43<pr<***>$p==<ee5",
"<<,>46re5e55656766=63==36rpr55pp9889p<5==o&=p=5=p<",
"<;>,477r5e6551173=6=====r<=5epepy78833=<pp=355pp==",
">><49997$5555@#7666=====p$o&5p5p9898>**3==+=pp5==*",
"<<99666e+$5==@#29yt99999=$p$$==$39w94>**opp$p5p=&=",
"<<88433=$$$=51=r6ut999y9ppp$*=>p=8093*&#$+pp+p$$<<",
"9<933=67t5#=r62r=====498p$*op>=$34<,>*OO&p$$+==p<=",
"98433*562==672$#+$p5=ppp&p&&&+&=->44484:*&#*537q==",
"98731##==@@5ttr2eppp&&&pp+oppp&p4,4qq3*&*@**3224<<",
"=33=1####++*rtttpep+&&p&&pop$pp54::q8:O#&@#2331:<e",
"*=<=###%%##$==265+++pp&op&&oo&$p:-O->*&:oO#:211><<",
"873:###:1111@X@%$=5ppp&p&&&&p==&2-%%->11oOO&:121e<",
"331##:264762#+@$$55pop&&&opppp$p8874774#*>==167755",
"*1=##1472122=$$%+=5=o&& p&&p$pp=8248q41->>::17q7==",
"643#X#:11=1161%1o&>>pppppppp&o$p,OO:4>>4@o@@#266<e",
"44>%#X@#+#%$#%%:<><<wpw>004:--###.OO..%#XX@@#1775e",
"->441=%125277147p<<pw0,>842:%###>:9q4>#+XOO*#12755",
"48741%=1726tq62qp8<9,;-44>%O###1>39q843#:146212433",
"w04-#%1%5+@1222q8<-&OO>q>-OO.@:2*OOO#3yq26yq611133",
"82%%1277%+.#117q8>&&o*401::-###2#. ..:9y2457721#<<",
"4>->tyt7r2%%17q7<<*&&<0474494###:X&**12*##122641<6",
"24487221796%4wq><<*><884q447:O+%1-::*:1###%:44676<",
">>,411%1172:2w0%7**<,>4qw0>*O.X44&ooo*22+o####16<6",
">%OOOXX#X#%4284,4->27>:42OOO.O4>:-1139q2@.+*=&*4e<",
"-OOOOO#1::1404:-OOO->,401-*OO3qq4344>32:O.O=**=735",
"%%OO*#127487q0-o-1::>777771.O4443O-:OO:1#O+*=*=7==",
">-%&:111722qwq>%27824q91qw>.#4:#:.....:7=&##**=6=5",
"4>-%141:>-18ww8>%4747q7::4o -41>9#X**X%162*#*=6963",
"241>262#%%-2000,-296794X**..#4217-:431:#4315369y33",
"447229642>>2,8882ty977:@:o.##:>::#>43>1#111399663=",
"-4q977q7qq8,2,80899972*X- .-&#411>23#:2%#114e<=&3>",
"279946369983389<<==><*&o&. oX%%%::>1*&***=>64>**e<",
"11:>:3>>34638997>***>>&oooX*22%X%:1-&&@&636886:*<<",
"3:**>33*>>336899*&&&=<& #-3772%#.O##*:33983894:*>3",
"33>3333333**>336&&&&**&o1472212%OO*:389993>694*O**",
"*:633>:333***:>6*<=**&*&42:%X%%14434646383*=46*&*>",
"&344331>3>****3848983>**442%%X%:9999833*4=&*33***&",
"136443>3**:>3349484<>=>>1>%%X%%%467797313*o&=33=&&",
"3::>33:*>36443893<3>>*:&:*#..XXX33479931=@oO*>33**",
">***:333o*99733873><7<>=%%%%%..X*&&=63=+.*4*&=3=*>",
"3>***>:***3<63883<>3=**=8%X....#=+&***&&&*>*=*=>=3",
">***333343**>8663***&&*4q2X XX.#+o&+*+oo=**==*=3=*",
"3=*3346894*=363><,*&&&=82-%.%X.X+&=33*$&====3>==+&",
"86333>3*8836643:<3&&&:12X##XX...=36963=3*=3337=O&*",
"33>33>>1=>34833>>:*&*>1-O-%#%%%29633&o+*&36=37=+**",
"&*>3>3643::>3633*>>::>:%::%X%%:63*+o+o+*$=3=33=&*=",
"333333336>**:33**>84331%#X.X:%#1+o+&+&33**=33=**=3",
"63><3389<643363=3>3=33*o+oo++ X#&++&=*$>&*3e3*$:33",
"4==484<43433<665<>==*=*$=+&=#&*2==O*3&&:*&:<3=$=53"
};
