/* XPM */
static char *_5257_980c11a73c1961ac08917ff26f6d638640ed0d0e426873406aaa83ecc489eb8a[] = {
/* columns rows colors chars-per-pixel */
"50 50 251 2 ",
"   c #0C0700",
".  c #140200",
"X  c #1C0301",
"o  c #150B01",
"O  c #1C0B03",
"+  c #1B0C0B",
"@  c #1C1504",
"#  c #1B1806",
"$  c #1F1110",
"%  c #230400",
"&  c #2C0701",
"*  c #240B01",
"=  c #2B0B01",
"-  c #280D0D",
";  c #350D0A",
":  c #241301",
">  c #2D1501",
",  c #2C1C01",
"<  c #2C140B",
"1  c #26190C",
"2  c #351302",
"3  c #3C1B02",
"4  c #34140C",
"5  c #3B140C",
"6  c #381A06",
"7  c #350E11",
"8  c #2B1916",
"9  c #3B1414",
"0  c #381B18",
"q  c #1F2501",
"w  c #2B220C",
"e  c #252708",
"r  c #352501",
"t  c #3B2C03",
"y  c #3C240D",
"u  c #392807",
"i  c #2C3207",
"p  c #393406",
"a  c #2B2315",
"s  c #2A2717",
"d  c #3C251A",
"f  c #3B2C1C",
"g  c #332718",
"h  c #2C3019",
"j  c #373617",
"k  c #361D21",
"l  c #2F2B24",
"z  c #362926",
"x  c #393626",
"c  c #3D3831",
"v  c #362D30",
"b  c #481806",
"n  c #521C05",
"m  c #431516",
"M  c #431D13",
"N  c #431C1C",
"B  c #471718",
"V  c #531F15",
"C  c #442908",
"Z  c #562606",
"A  c #473808",
"S  c #5A3607",
"D  c #4B2A1B",
"F  c #472716",
"G  c #552314",
"H  c #542A13",
"J  c #572718",
"K  c #473718",
"L  c #5C341D",
"P  c #573919",
"I  c #652C0D",
"U  c #663609",
"Y  c #733807",
"T  c #6B3C16",
"R  c #663C1C",
"E  c #693919",
"W  c #7A391B",
"Q  c #421821",
"!  c #4C2921",
"~  c #442927",
"^  c #522C24",
"/  c #562927",
"(  c #473728",
")  c #553323",
"_  c #5C3626",
"`  c #423835",
"'  c #583436",
"]  c #522F32",
"[  c #643A25",
"{  c #683A35",
"}  c #703E3F",
"|  c #3D4409",
" . c #3D4512",
".. c #3D402F",
"X. c #4C470B",
"o. c #584900",
"O. c #4E5502",
"+. c #535503",
"@. c #555B04",
"#. c #5A5D04",
"$. c #54550B",
"%. c #555A0B",
"&. c #5B5C0B",
"*. c #5B5408",
"=. c #474B1C",
"-. c #474818",
";. c #574B15",
":. c #4D5618",
">. c #535412",
",. c #5B5D13",
"<. c #545B1B",
"1. c #5C5D1B",
"2. c #575618",
"3. c #684905",
"4. c #724709",
"5. c #635C0D",
"6. c #655806",
"7. c #69451B",
"8. c #615D12",
"9. c #675C19",
"0. c #795A17",
"q. c #745016",
"w. c #5C6304",
"e. c #5D6C02",
"r. c #5D630C",
"t. c #576A05",
"y. c #597107",
"u. c #5D6314",
"i. c #5E621A",
"p. c #5B6815",
"a. c #4F6C00",
"s. c #616405",
"d. c #616B03",
"f. c #62650C",
"g. c #646B0C",
"h. c #6A6B0D",
"j. c #69650D",
"k. c #6A720D",
"l. c #637105",
"z. c #626513",
"x. c #646A14",
"c. c #696C14",
"v. c #63651B",
"b. c #6B651B",
"n. c #666B1B",
"m. c #6A6D1A",
"M. c #6C6515",
"N. c #726E1B",
"B. c #756116",
"V. c #677213",
"C. c #6B7213",
"Z. c #6B711B",
"A. c #65711C",
"S. c #71741C",
"D. c #72791B",
"F. c #4A432E",
"G. c #484829",
"H. c #55492B",
"J. c #585927",
"K. c #4C4333",
"L. c #4A443A",
"P. c #474537",
"I. c #544937",
"U. c #595637",
"Y. c #6D432C",
"T. c #644428",
"R. c #764726",
"E. c #655C28",
"W. c #74542A",
"Q. c #6A4332",
"!. c #64453B",
"~. c #70403D",
"^. c #6B593A",
"/. c #775839",
"(. c #5E6222",
"). c #5F6926",
"_. c #5E6133",
"`. c #636422",
"'. c #6A6523",
"]. c #656924",
"[. c #6A6C23",
"{. c #63632B",
"}. c #6A6C2C",
"|. c #69672B",
" X c #756B26",
".X c #6C7222",
"XX c #6C722C",
"oX c #657122",
"OX c #747526",
"+X c #6B6C33",
"@X c #6B6C3B",
"#X c #636237",
"$X c #73683A",
"%X c #6F7235",
"&X c #767638",
"*X c #4D4142",
"=X c #564946",
"-X c #5B5746",
";X c #5F5852",
":X c #545048",
">X c #6B4643",
",X c #724144",
"<X c #635C44",
"1X c #625C4E",
"2X c #695745",
"3X c #635955",
"4X c #765A47",
"5X c #5F614B",
"6X c #6C6B42",
"7X c #69674C",
"8X c #766949",
"9X c #7B7A4C",
"0X c #767548",
"qX c #696757",
"wX c #726C57",
"eX c #787658",
"rX c #746A66",
"tX c #7B7467",
"yX c #85521C",
"uX c #88651E",
"iX c #885725",
"pX c #945D27",
"aX c #8B5B38",
"sX c #9F5B36",
"dX c #876824",
"fX c #9B672E",
"gX c #89772C",
"hX c #886637",
"jX c #986439",
"kX c #957A38",
"lX c #8B7732",
"zX c #A26834",
"xX c #A57437",
"cX c #8E5E41",
"vX c #987647",
"bX c #817E5D",
"nX c #966B47",
"mX c #B57A56",
"MX c #A7734D",
"NX c #837F62",
"BX c #A57D64",
"VX c #7A8125",
"CX c #838449",
"ZX c #888757",
"AX c #928F56",
"SX c #969665",
"DX c #8E8B69",
"FX c #B28567",
"GX c #A2A26C",
"HX c #B48D52",
"JX c #C69B6B",
/* pixels */
"k.k.V.h.m.n.].].+X(.J.].}.[.`.n.n.n..X[.].v.i.u.u.%.&.r.g.l.V.d.C.V.g.m.Z.V.x.r.&.u.n.V.r.r.f.V.x.x.",
"k.k.V.c.m.n.].}.].`.v.].}.].n.[.i.v.n.i.i.i.`.[.n.v.u.r.g.g.k.k.C.k.g.V.Z.Z.x.r.r.z.x.m.x.x.x.c.x.x.",
"g.l.h.c.m.[.[.].`.(.`.[.n.i.v.Z.m.n.n.u.,.,.1.i.XX.X.Xm.c.V.D.VXC.k.k.C.C.V.x.r.x.x.x.x.m.V.x.x.V.V.",
"g.k.V.c.m.[..X[.i.i.`.n.v.r.u.Z.m.n.n.n.u.,.,.i.[.[.[.m.x.Z.D.D.C.C.C.k.C.c.g.f.x.x.r.x.Z.Z.m.x.n.n.",
"k.c.c.V.m.n.n.[.u.,.u.x.u.w.w.m.@.w.x.n.n.].].].1.i.i.i.v.u.x.m.C.k.C.D.k.g.e.w.g.x.r.V.Z.Z.n.x.p.x.",
"C.V.V.m.V.x.n.n.u.%.u.u.u.%.w.x.x.V.Z..X[.n.].].%X].].v.`.[.n.m.C.k.k.k.g.d.w.w.g.g.r.x.n.Z.n.x.f.z.",
"Z.Z.Z.c.c.x.x.x.x.r.r.r.x.r.r.g.S.D..XZ.].[.XX&XAXCX+X{.|.XXXX].f.k.C.k.d.w.w.w.w.r.c.c.x.x.n.n.z.x.",
"S.D.Z.V.m.x.p.u.Z.r.r.c.Z.V.x.c.r.u.u.v.[.&XAXSXGXZX{.2.J.{.{.i.x.C.C.k.d.w.w.w.w.e.g.m.z.u.i.n.x.x.",
"Z.Z.Z.Z.x.r.f.x.V.r.w.x.Z.n.&.+.,.u.XX%X|.AXSX#X@XJ.6X6XJ.J.@X<.i.x.x.r.w.d.g.l.w.w.w.#.u.n..XXXx.x.",
"x.m.m.x.f.r.r.x.p.&.%.i..X.X.XXX%X&XAXCX_.@X9X#X6X0X0X^.J.6XZX@X2.1.n.OXVXD.w.@.w.w.w.g.z.z.n.n.n.m.",
"x.x.p.r.@.@.w.r.r.%.%.u.].}.&XCX+X0XSXZXU.J.7X7X7XDX7XF.U.DXDXZXZX&X`.n..Xu.w.w.w.w.w.r.x.x.i.x.m.Z.",
"m.m.c.r.@.@.@.#.&.%.2.i.{.{.+X9XJ.J.0XeX<XF.-XqXqXwXK.j 7XDXNXZXGX9XJ.J.1.%.%.Z.O.O.w.r.u.x.n.n.m.V.",
"x.x.x.r.@.w.r.p.u.i.].@X@XE.J.U.-XU.-XqXrX:Xc *X7XP.a x rXeX<X7XU.U._.0X&X].u.p.O.@.w.r.x.m.n.V.n.m.",
"r.r.r.r.r.r.n..Xn.}.&X9X0X7XI.K.qX1X=X1XrX3Xv c rX` a I.tXeX<X7Xc I.7XeX0X+Xu.r.r.g.g.g.c.n.n.n.p.x.",
"r.r.r.w.@.r.x.Z.v.`.@XCXbX7XU.K.;X3X` *X3X:Xv v rXc l L.-XU.-X<X;XqX1XU.J.|.].r.p.r.r.f.z.x.n.V.x.x.",
"Z.c.m.r.@.%.%.i.<.<.{.eXNXwX:XL.=X3X*Xz v k . 8 :Xz 8 a o s K.` :XqX-XP.U.0X0X(.%.$.$.t.r.p.A.A.x.x.",
"M.j.&.&.,.,.<.2.@X_.G.H.1XbXrX1X*X' ~ 0 4 * % % = < * O 1 $ a P.5X:X*X5X5X5X7XeX@X_.:.:.p.oXoXA.x.z.",
"N.N.M.z.8.E.+X$X9X6XU.F.I.3X2X=X~ 0 7 & & 2 M F 6 5 = * - $ + l h l ..qXqXqXqXwX7X_.).:.:.p.p.p.r.f.",
"N.N.N.M.8.b.&XAX0X8X^.I.` K.c x < ; 4 9 M / [ Y.D D 4 < 0 - . + @ q c -XqX5X5X<X7X6X@X+X).i.A..Xp.x.",
"h.c.M.5.8.9.&XvXW.8X8X^.I.f a : * 6 D _ Q.Q.Q.{ [ ^ 0 F ] z O o @ # s F.5X5X-X#X^.#X_.).(.p.r.r.m.Z.",
"V.g.s.5.6.uXdXhXW./.cX2X( w # : y F R Y.Y.[ [ J _ J m ! !.' 8 - O   o g I.2X2X^.^.^.E.'. X.Xz.&.Z.Z.",
"l.y.s.j.j.uXiXiXjXaX/.T.y @ # i T.T.T.[ [ R E [ H b m V >X' 0 8 1 o o 1 D D D C K A A ;.'.OX.Xx.m.x.",
"y.y.g.M.B.uXpXsXmXnXaX[ r o # h T.7.7.E T E T T n n b / ,X} k 9 ~ w : : : = 6 C b r C S 6.8.8.&.m.m.",
"a.l.k.h.0.yXpXzXmXmXcXQ.y o o , C Z S S U E I I n Z m / ,X' Q 9 K.( 4 * % 3 [ nXnXvXkXkXgX X XN.m.V.",
"y.a.w.6.3.Y Y Y sXW yXJ & : e j ;.U S U T T E E n b J J } ,XB B 4 ( D * Q.BXcXFXkXMXJXkXlX6.5.N.x.x.",
"a.a.@.6.6.3.Y Y W I W J % : w H./.W.W.R.R.T I I n n J V } } B Q 0 f f X _ FXMXJXMXMXHXkXkXo.M.c.x.r.",
"t.a.+.#.5.q.4.U I Z [ H % * w H.H.7.7.T.7.T I I n n V V { } m B d f 0 X C BXmXzXxXxXdXlXkXo.N.b.r.r.",
"y.t.@.#.B.0.4.S S n [ H % % < ) P P L R R T E S n b V V { } m Q d f 6 % b aXjXZ sXfXU dXgXo.gXc.r.r.",
"C.x.w.&.b. X7.C A b L F & ; 4 ! ^.4X/.Y.[ R H b Z n G V { } B B f D , X 3 R.iXI fXzXS dXuX+.OXx.f.p.",
"V.V.M.z.b. X*.C C 2 F F = 5 0 ^ 4X4X4X_ P L H b b b V V { { B B f ( : . 2 T jXyXfXxX4.dX0.6.N.x.m.m.",
"M.m.m.b.[. X1.t p , ) D & ; 9 ' >X^.!.K F L H b b b b b L { b 9 1 K.X X 2 Z yXzXpXxXuXuX3.j.f.x.x.x.",
"f.N.N.n.b.XX1.A A t H.D % % 7 ] >X2X!.D F J F ; b b m b / { ; 0 * K.. X 2 & U yX4.uXuXB.A N.&.m.x.x.",
"N.b.c.b.N.c.&.X.p 2.E.K O . - 0 !.~.' D ^ _ ^ ; 5 m ; m ' / m 7 7 8 - X % > C 3.0.gXgX6.o.5.B.j.N.C.",
"z.j.z.c.S.OX Xb.b.$X6XH.1 o $ d 4 M F 5 N / F ; ; 7 & ; ] ] 9 7 ] k X . : u A r 8. XdX9.5.9.9.5.c.c.",
"b.z.8.8.,.>.>.>.J.H.H.( a . $ z ~ ) _ ) _ { ) M & ; & ; ! ! 4 7 ~ z - . 0 H.H.p K ;.9.|.$X XB.5.c.g.",
"m.v.1.1.>.p r p u w e h 8   . g 6 F C 3 y C 6 % = 2 & ; D D 0 4 7 v ~ 8 0 =X2XH.C t A E.lX X9.8.f.j.",
"z.u.).}.J.=.j ..c s s l s     @ u C t t C C K C * > O * y y > > - v c 8 k L.:X' f , t H.+X|.9.z.8.r.",
"u.u.XX%X_...x c c v l l s # q s r 3 , : : : : > : , : : r t > , @ 1 # @ v =X;X` ` g e -.E.`.v.v.f.s.",
"y.p..XXX<.h e x l l h s e j G.J.|.E.9.2.>.X.X.A p A t t K A p A p i g s x *X=X*XP.x j j <.v.x.f.z.r.",
"e.t.x.oX:.i h ......x e q  .).&X`.`.'. X'.E.`.'.9.`.2.>.`.E.2.E.{.@X@XU.f s l P.P.F.j | >.x.V.f.s.s.",
"e.e.l.u.:. .i q i e q i | :.p.oXu.v.n.n.b.v.v.1.9.1.,.>.>.>.X.>.,.<.<.J.=.j w h j j i | a.t.e.w.g.z.",
"e.e.e.y.p.i.:.=.G. .:.i.p.oXA.V.x.x.z.z.z.z.z.u.v.z.,.>.$.%.>.%.%.t.p.(.J.-.-.-.=.-.-.O.w.g.e.w.f.z.",
"e.e.e.e.y.n.XXXXoXoX).i.m.V.y.e.g.j.f.w.r.r.r.z.x.z.r.%.$.$.$.%.O.O.@.p.p.>.:.<.].i.u.r.g.l.d.e.w.r.",
"l.l.d.s.e.x.n.m.XXoXr.t.@.w.e.g.g.f.w.w.#.w.s.z.z.u.&.+.+.+.+.+.@.@.w.x.p.%.,.u.n.u.u.r.g.d.e.#.#.&.",
"l.h.g.d.g.s.w.w.D.c.f.s.g.g.c.h.l.d.s.6.#.&.s.f.f.&.&.@.+.+.*.@.r.f.m.Z.n.f.&.z.f.f.f.x.g.g.w.#.&.&.",
"j.z.c.c.h.h.j.s.s.g.h.c.S.S.c.z.j.j.s.s.s.s.s.j.j.s.5.&.&.&.s.5.Z.n.x.c.s.@.#.w.r.f.x.c.n.c.z.z.u.5.",
"9.v.b.M.M.h.k.h.6.w.j.h.N.b.v.5.j.d.j.j.s.s.5.s.w.6.#.#.#.5.z.v.b.,.%.&.+.+.+.w.w.s.M.x.b.v.9.1.v.z.",
"b.v.v.z.j.h.h.h.k.g.s.&.&.z.8.8.j.j.h.j.h.j.j.f.#.#.*.*.*.5.8.8.9.1.$.%.@.+.#.h.#.w.z.z.z.,.,.>.v.z.",
"z.n.x.n.m.V.c.c.V.c.z.z.m.c.m.x.c.g.j.f.x.f.&.+.+.+.+.+.+.$.&.&.,.@.$.r.x.f.f.z.f.r.f.x.x.&.,.n.n.x.",
"x.x.x.m.c.n.m.m.V.x.x.x.m.n.m.x.c.x.f.x.z.f.&.#.+.$.+.*.$.$.8.,.r.@.@.u.x.r.r.r.u.r.p.c.x.r.r.x.n.n."
};
