/* XPM */
static char *_971_839a5403299cb5b1e015636e21b9d9dedd0f21773c31e5ec91a1c7f17dc257fc[] = {
/* columns rows colors chars-per-pixel */
"50 50 234 2 ",
"   c #0C0300",
".  c #0D0B00",
"X  c #140300",
"o  c #130D00",
"O  c #1D0E00",
"+  c #1B0700",
"@  c #161200",
"#  c #1D1502",
"$  c #1E1901",
"%  c #1D160A",
"&  c #1F1808",
"*  c #250A00",
"=  c #231501",
"-  c #2A1601",
";  c #221A02",
":  c #2A1C01",
">  c #22190B",
",  c #2B1C09",
"<  c #24150A",
"1  c #321D01",
"2  c #341807",
"3  c #391D11",
"4  c #252002",
"5  c #2B2301",
"6  c #2B2A00",
"7  c #2A2309",
"8  c #2E290C",
"9  c #272308",
"0  c #342501",
"q  c #382103",
"w  c #342C01",
"e  c #3A2D03",
"r  c #32240B",
"t  c #3B260C",
"y  c #342B0B",
"u  c #3A2B0B",
"i  c #363302",
"p  c #3A3404",
"a  c #3B3902",
"s  c #39350A",
"d  c #3E3A0A",
"f  c #372914",
"g  c #3C3214",
"h  c #3E3914",
"j  c #3B3518",
"k  c #2F2D14",
"l  c #492809",
"z  c #413403",
"x  c #423C02",
"c  c #443A0C",
"v  c #4A3B0C",
"b  c #46330B",
"n  c #412C11",
"m  c #433012",
"M  c #43351A",
"N  c #493A1C",
"B  c #463816",
"V  c #513618",
"C  c #4E3C21",
"Z  c #4B3621",
"A  c #543C22",
"S  c #5D3E22",
"D  c #454403",
"F  c #4B4C03",
"G  c #46430A",
"H  c #4B450D",
"J  c #4A4908",
"K  c #524E09",
"L  c #4E5100",
"P  c #525403",
"I  c #565903",
"U  c #5A5D04",
"Y  c #54550B",
"T  c #565A0B",
"R  c #5B5D0C",
"E  c #5A5709",
"W  c #4C4513",
"Q  c #4E4A1B",
"!  c #4B4815",
"~  c #544F13",
"^  c #594C1B",
"/  c #524619",
"(  c #555413",
")  c #585616",
"_  c #5C5C13",
"`  c #55531B",
"'  c #5B561B",
"]  c #5D5C1A",
"[  c #615E13",
"{  c #625D1B",
"}  c #635E0D",
"|  c #5D6104",
" . c #5E610B",
".. c #5E6909",
"X. c #5C7001",
"o. c #5E6212",
"O. c #5F6419",
"+. c #616504",
"@. c #646905",
"#. c #62650D",
"$. c #656A0E",
"%. c #696C0D",
"&. c #6A640B",
"*. c #63730A",
"=. c #6C700F",
"-. c #636513",
";. c #696515",
":. c #656A14",
">. c #6A6C14",
",. c #64641A",
"<. c #6A661C",
"1. c #666819",
"2. c #6A6C1B",
"3. c #706B13",
"4. c #716B1D",
"5. c #677114",
"6. c #6C7114",
"7. c #6D711A",
"8. c #6A7817",
"9. c #71741D",
"0. c #727C1B",
"q. c #524224",
"w. c #5C4125",
"e. c #5D4B2A",
"r. c #5A4529",
"t. c #5E5B22",
"y. c #5C5828",
"u. c #585322",
"i. c #4F4E30",
"p. c #5E4F32",
"a. c #5B5635",
"s. c #47462A",
"d. c #644C27",
"f. c #625624",
"g. c #635D24",
"h. c #625D2A",
"j. c #6B5D2C",
"k. c #6A582A",
"l. c #634C31",
"z. c #6A4C30",
"x. c #6F5235",
"c. c #645D33",
"v. c #6E553B",
"b. c #685635",
"n. c #7C5D3E",
"m. c #725737",
"M. c #646423",
"N. c #696524",
"B. c #6C6C23",
"V. c #64632A",
"C. c #6C652B",
"Z. c #6D6B2A",
"A. c #646929",
"S. c #706B2E",
"D. c #736B2B",
"F. c #6E7123",
"G. c #717325",
"H. c #74752C",
"J. c #797C2B",
"K. c #666231",
"L. c #6B6931",
"P. c #6A6438",
"I. c #746634",
"U. c #726C35",
"Y. c #726C3A",
"T. c #76673A",
"R. c #737233",
"E. c #7B7639",
"W. c #755D43",
"Q. c #795E41",
"!. c #6E5A41",
"~. c #7C6445",
"^. c #7C6D4B",
"/. c #746745",
"(. c #767241",
"). c #73714B",
"_. c #7E6D51",
"`. c #6E6B48",
"'. c #817D3A",
"]. c #846C4B",
"[. c #8C6C4A",
"{. c #846547",
"}. c #867848",
"|. c #896E53",
" X c #8C7851",
".X c #8B7358",
"XX c #927659",
"oX c #9C7B5B",
"OX c #947756",
"+X c #926E4C",
"@X c #A37D58",
"#X c #9A7E62",
"$X c #A27F61",
"%X c #7C8326",
"&X c #85843B",
"*X c #898447",
"=X c #8D8651",
"-X c #96815B",
";X c #958A52",
":X c #9D9957",
">X c #94904A",
",X c #A8825D",
"<X c #A0965B",
"1X c #A6A15F",
"2X c #9D8468",
"3X c #A48464",
"4X c #A48A6B",
"5X c #AC8C6B",
"6X c #A78A67",
"7X c #B18C65",
"8X c #B18F6C",
"9X c #A59467",
"0X c #B3926E",
"qX c #BB946D",
"wX c #A98F74",
"eX c #AC9278",
"rX c #B69878",
"tX c #B8A87B",
"yX c #A9A867",
"uX c #C19F7C",
"iX c #C5A07D",
"pX c #C9A37E",
"aX c #C3C07B",
"sX c #B19B84",
"dX c #C7A888",
"fX c #C6AB93",
"gX c #D9B797",
"hX c #D3B291",
"jX c #E5BF9A",
"kX c #E3C5A8",
"lX c #E2C0A4",
"zX c #EFD0B3",
"xX c #E8E3A3",
"cX c #D2CA8C",
/* pixels */
"=.6.=.>.2.2.N.2._ ,.N.2.1.$.$.>.H.A.V.L.Y.P.j.j.^ C.{ E R 9.0.%.=.%.$.%.6.6.-. .R -.>.1.#.#.#.>.:.:.",
"=.%.%.>.>.2.N.N.M.1.B.2.1.>.>.>.O.V.Y.Y.h.^ y.I.I.j.M.4.-.L I 6.6.>.%.>.6.7.;.#. .-.>.>.:.:.>.:.:.>.",
"%.%.%.5.2.B.2.B.Z.B.,.1.>.1.>.1.M.V.V.y.^ c b / / H { E.&XG.7.%X6.>.>.7.7.2.>.#.:.-.-.;.2.>.>.-.2.2.",
"%.%.>.>.2.2.B.B.1.N.<.,.-.-.>.2.R.` s i p e : = + = 0 w P R.%X5.6.9.6.7.7.>.-.#.>.-.#.1.7.7.>.$.>.:.",
"=.%.>.>.>.2.2.N._ { 1.-.R R -.H.` s # # 5 0 0 0 b / x ; = D ,.F.7.7.F.7.>.1.#.#.>.-.#.:.2.9.>.-.:...",
"6.6.6.>.2.2.1.2.T ] ,.] _ _ -.B.4 $ ; : 1 u e.~.]. X-X}.H ; a Z.2.2.7.F.>.#.#.#.:.$.$.:.>.2.>.:.O.o.",
"6.9.6.2.>.1.1.,.,.,._ _ ,.,.] ( @ ; 5 u m / ~.4X]. X2X9XI.w ; i N.F.F.2.;.R R  .#.#.:.:.1.;.1.1.:.o.",
"9.9.7.>.1.1.-.-.H.,._ ] Z.Z._ H w 4 : n r.v.{.XXrXrXoXT.T.T./ $ N.N.F.B.-.R U | U &.>.>.#.#.-.1.:.:.",
"%.>.9.>.:.-.;.1.-.,.N.N.M.R.M.p u + 2 l.Q.x.+XhXkXhX3XoX X^.P.: ' M.Z.N.1.9.7.#.#.#. .+.-.1.2.2.:.:.",
">.6.>.>.-.R  .-.( Y _ M.V.(.L.d g < * S x.S V S kXkXdXXXN 0 C u a ` S.H.H.7.#.I +.+.+.-.-.1.2.B.5.2.",
">.>.>.#.U I U E R Y ( ] V.E.K.p u t n z.x.S l l dXgXdX#XA u !.b.# a V.R.N.-. .U U U | +.#.;.,.1.7.7.",
"-.1.-. .U I R R 2.T ( ' y.V.u.5 - Z W.{.x.{.+XuXdXdXrXrXwXeXsX_.  6 ! O.o.R #.6.P I U R #.-.o.o.7.5.",
"-.-.-. .U U #.>.B.o.O.t.` Q B # + S |..X{.@XhXzXhXuX$XdXkXkXfX!.. ; W M.,._ $.6.I U | +.-.;.,.o.1.1.",
"-.-.#. .U #.-.2.1.{ N.V.G s i ; 1 r.|.#XuXpXjXjXiXuX$XsXfXfXeXZ # 5 W C.H.2.#.| | @.@.$.1.2.1.B.:.O.",
">.-.#. .U U -.>. .1.R.C.s ; 5 5 t w.{.5XiXpXiXuX@X@X+X$XsX#X.Xn ; ; i ' R.G.#.U +.+.+.#.;.1.2.B.:.O.",
">.$.-.| U E #.<.{ C.}.L.w o $ ; = n W.2X@XuX@XuX@X@X{.#X#X.XW.O ; @ @ s M.D.2.:. .| R |  .-.1.1.:.:.",
"*...%.#.P K { k.'  XtXN   y ; # @ 9 q._.4X5X5X7X@XqX5XwXeX`.k j $ . o 6 Q V.M.J Y Y E R R -.:.>.-.o.",
"X.*.*.#.E [ j.C.XXfX.X1 O y 0 . ; > j p.~.+X@X5X0XrXeX4X4Xa.k s.j $ # 4 s y.V.G ) T _ o.#.$.>.>.$.:.",
"*.%X6.#.4.N.I.+XrXfXn X m q.a.4 $ $ 9 M d.m.{.oX3X8XoX|./.k @ i.P.Q i $ 6 t.R.) ] ;.-.1.1.:.:.#.:.:.",
"5.*.>.} 4.{ D.9XtXT.O = q./.).B @ @ , m V d.z.{.[.[.n.l.C . . a.P.t.G $ 4 ' *XA.N.B.B.2.>.-. .I 2.>.",
"5...I O.,.~ U.tXtX: : / e.(.b.h $ $ 4 u m V S x.m.{.m.r.Z @ > `.` ' K 6 $ F H.M.1.2.2.2.2.>.#. .2.2.",
"G.| O.F.,.Z.<XtX XX v T.k./.! u 8 9 4 : : q V z.z.Q.l.N j 4 k ).) o.O.D 6 D 1.-.T R o.;.2.1.2.>.5.5.",
"F.o.G.F.O.1XcX;Xx z ^ j.T.j.z 5 8 9 4 ; = - n V S v.N : 9 4 y a.M.-.>.R F P >.-.I I R  .-.1.1.2.2.5.",
"o.T J.O.T pXxX{ @  Xf.^ }.^ 0 O $ $ 9 8 : = - t r.!.M X O $ 9 Q <.I U  .I ..:.R R R R R R } -.-.2.2.",
"Y F.1.F 1.:X&Xx ' g.C.C.^ l : = 5 5 4 ; : - : - Z f , # + ; 7 i 2.+.#.$.6.7.>.7.I E R #.-.;.1.-.2.5.",
"R o.E P _ H.B.Y ] C.C.f.v q - : ; ; 4 ; - : = - f 3 : = # ; 4 5 1.$.#.#.&.#.#.+.T U R R _ o.,.-. .o.",
"1.E P R R P R B.,.Z.S.^ 0 - - 1 : 4 ; , > ; < = < < = ; ; ; ; ; R U R | U R | R R U R T R  .,.;. . .",
"4.} R ;.-.P R G.2.Z.j.W 0 1 1 1 : ; ; ; ; > < > = # < $ ; $ ; $ D L I I I  .-.-.-. .R E R -.>.1.o.o.",
"3.;.&.#.:.>.;.o.O.M.` x q q 2 - : ; ; ; ; & % > % # & # $ ; ; 5 a L T T E o.-.;.;.-._ #.#.-.1.7.:.1.",
"&.3.%.+.%.0.5.P o.] H i q 1 2 * : ; ; ; & % % % % & & # $ ; ; 5 i Y N.-.R _ -._ 1.1.-.-.-.1.2.2.:...",
"&.3.&.@.%.8.5. .1.1.~ 0 - 1 2 * : : ; ; & & % % % % % & $ ; ; ; 6 K B.N._ ,.[ _ 1.<.1.1.:.1.:.>.:.O.",
"3.&.%.=.5.5.1.8.F.R.j.e = 1 3 , = ; ; $ % % % % @ % % ; ; ; # # $ J A.N.] M.1.-.[ -.-.-.1.:.-.-.>.5.",
"%.>.*.5.5.>.>.B.H.L.W 0 r , < 3 # # # ; ; > > > & # & & ; ; ; ; # G M.M._ _ R P #.$.$.%.>.%.+.R 2.7.",
"%.$.>.>.>.1.1.,.N.g.c 5 r , O > ; $ ; # < & % ; & # & # $ ; ; ; $ G M.M._ _ -.U >.%.%.%.6.%.#.| >.>.",
"....$.$.:.:.-.,.g.u.s : r , O > - $ ; $ $ $ & = # # # ; $ ; $ 4 4 G M.M._ ,.>.%.>.6.>.6.6.>.$.#.>.;.",
" ...$.:.:.1.-.,.,.' p : r , = , ; ; > > # # # # # # # < & ; ; ; $ G M.M.o.1.2.1.6.6.%.=.>.>.$.R -.-.",
":...5.>.>.:.;.,.N.' i # : 5 - , - > ; ; = # $ # $ # # ; ; ; > ; @ a A.B.1.1.1.+.>.#.$.#.%.#.#.R R #.",
"5.:.:.>.>.1.1.1.<.( w = 0 : ; : = ; $ $ $ $ $ $ # $ $ $ ; # ; ; @ x N.Z.B.2.;.| &.#.+.#.#.#.#.R #.-.",
"o.o...5.:.1.:.-.<._ a 5 e w = = ; # $ ; ; ; $ ; $ $ # ; $ $ ; ; @ J B.F.1.2.>.#.+. .U U #.-.#.#.#.R ",
"o...O.....o. .#.<.[ x p v s : # # $ $ $ $ ; 4 ; ; $ $ ; ; ; ; ; 4 J Z.F.1.2.7.>.| | U U #.-.-.-.#.#.",
"o.....o.#.$.$.-.[ R { g.D.k.c : # $ g K.`.K.y.V.u.d ; @ @ $ 8 d g.{ ,.2.1.-.| I U | |  .R } o.-.-.#.",
"o.o.o.-.-.#.-.#.1.-.[ { D.S.g.u.B h ! a.K.t.t.N.V.( i 6 6 6 h Q ' ( F Y R -.#.U U | R #.#.-._ -.-.1.",
"o.o.o...#.:.#.:.9.>.[ [ N.H.}.;X(.c.y.g.t.) ] Z.H.,.( ! ! Q a.(.*XH.[ P R #.I L #. .#.#.-.-.,.-.R  .",
"o.o.-.-.-.$.>.#.9.4.;.;.4.E.>X<X=X(.V.t._ Y o.F.1.-._ _ ` t.Y.=XyX>XJ.1.-.#.I P | #.-.-.,.,.,._ U T ",
"O.O.o.O.:.-.$.$.>.>.3.2.4.D.'.&X(.R.M.] _ E &.%.U P P P Y ~ t.R.*X&XJ.7.1.$.#.>. .#.-.1.1.,._ _ o. .",
"O.5.O.5.:.$.$.$.&.>.>.3.4.<.4.D.M.M.M.-.#...@.@.@.| U R Y K ' M.O.:.1.o.I P U +. .+.-.-.;.,._ _ o. .",
"O.O.O.:.:.:.$.%.&.&.&.;.;.;.} { { ,.,.1.:.$.@.+.*.+.| +.-._ ] ,._ R R P L L P U |  .-.;.1.] _ E  . .",
"1...O.:.:.:.>.%.:...} } } ;.;.4.] ,.B.2.>.%.@.+.U P L U -.,.] ,.,.o.Y L E +.:.1.U  .o.;.1.o.) Y 1.5.",
"1.1.O.5.7.5.5.2.>.:.O.:.2.7.7.2.B.1.O.-.o.-. .R P P P P Y _ _ _ _ Y Y o.1.o.o.O.O.O.:.1.O.o.o.O.O.O.",
"o...o.o.o.O.O.o.o. . .o.o.O.o.o.,.o._ T _ Y Y Y Y P P P Y E _ _ T Y Y o.o.o.T o.o.T _ o.T Y Y o.O.O."
};
