/* XPM */
static char *_9421_0ac8d070958cd89f9c872f65be43cd6245a2ca763b5b316aee1f9564e68e9abc[] = {
/* columns rows colors chars-per-pixel */
"50 50 47 1 ",
"  c #080707",
". c #0E0D0C",
"X c #100F0F",
"o c #11100F",
"O c #141413",
"+ c #181716",
"@ c #191817",
"# c #171718",
"$ c #1C1B1B",
"% c #201F1E",
"& c #21201F",
"* c #1F1F20",
"= c #1F2021",
"- c #242322",
"; c #292625",
": c #2A2827",
"> c #272728",
", c #2D2B2B",
"< c #312E2D",
"1 c #34312F",
"2 c #2D2E30",
"3 c #302F30",
"4 c #343332",
"5 c #393635",
"6 c #373937",
"7 c #3B3836",
"8 c #373738",
"9 c #383738",
"0 c #373839",
"q c #3C3B3B",
"w c #413B37",
"e c #413E3C",
"r c #3E413E",
"t c #42403F",
"y c #3F3F40",
"u c #403F40",
"i c #3F4041",
"p c #434342",
"a c #494644",
"s c #474846",
"d c #4A4846",
"f c #474748",
"g c #4C4B4A",
"h c #514F4B",
"j c #4F504F",
"k c #53514E",
"l c #525252",
/* pixels */
"7qqeeeq-&pp466q6qqq0r-,55qeqqueqq7%%477077777&:657",
"qqeqqe7%$qq7qqqqyqii5&:5qpppdhaew<$@3aeeuaew5%&577",
"dpqep75-&7q666qiiii54-,pqqqpeugaa7$$aaapquge5$15tp",
"q<,<,,<:-7612qgfss4,7$:q45pqqq755<+%4ae457ee5&111p",
"$:<,,,4:&165126,:4:4,@-1::,--%#$$@XoO%%%:-:<&O@&$-",
"+$$$$$-++%$$$#. .oO$$O$$#+XX+#%-&-O@%%%oX+&-%O+@#O",
"OO++@%$$o+$%O@,:2:>=O&&$%--O3550eu<<w5w%$qptpa7541",
"$%4<1114%;11&4lprrs6#::::,:$343314;<1<5;-p4ta756tr",
"$:<,,,<,$3<1-;q4460,$33435,+3095qu,-75w%&611544111",
"$:4<345,$115=,fiprp4%555078#5peuqe::eww:&464r66154",
"$344855:%5w5-;pu0rp5;037q05$33:3,q--ewe:&rrrrtttr4",
"+;::::,*o%%-+$7424<-$*$#$$$o+##O+@o&1,:%o&::::<<,&",
"+++OOX++O@$*#--#-:45<3<:##0qeeq777,#o+$@+$++ooX+$$",
"ee543$2055y9qu3*srr7u78e:$d05quupsg-%riijstr<@4ttt",
"q7ee7:<q9q9yqq2-q4448585-O858585776;:rrsirtsq-w777",
"eepuq,:puuuuuf3$8qqq7q7e<#aq5uueq0r&-sirssst7&eqt7",
"aaauq,;ufuyqq93$0aq5uuep<O3peepq45u;-qdtppsp0-qett",
"3485<;*q9933392%1,25qeqq3O,48,:<<:,$%<4<144q4%,111",
"XX++$+X+O##+--$O++%-%-*$%O$#O+OO+O+OO@++@$$&$.##oo",
"9,X%,3<;=---O*5<-:**%OO#+++XO@$$%;:::-O$4642,888r6",
"ju=fueauueae-3u5epuug<#:;:;O%:-:<<<177#*iiyfljffdf",
"yy*07epuue7a;*w95800p4$<,,4$%1145q7ew4$*yiffyq8y0q",
"uu-3euauueeu;*u95q07u3%5447:@457ueeeee$*fpiiyyyyqy",
"yq*:05qe7457,*ewfpqea3+e75e5O5pqqeeeue$:fyyiyy8246",
"2*O#**,2:<,<%%-,4qqqp,=py7pt$,q484uug7$;yuq0q88788",
"+O##XXOOOO@+%@%OO=>--*O>2;,,+O+O##==:*oo#>--4,>:$#",
"$->>-**X%1wwwwww; O#$$@$$$O:qy2,>>-#$OO#OOOO#OoXo#",
"4333482*%www5w1w<O:q7777q2$ffyyiyffju$-,:--;-*oO>3",
"iiyyyyy=%w<<115w<X1e455572#808888yiiq#:,<<3415%+0f",
"iiiyifi>%1w1wwww<O<eqpp772#8iyiipuyy0$,57eewtt&+0f",
">223iiy2%1ww5w5w1O<dpqqqr,@8iiiqyqyfu*,epeaaaq-#3,",
"##*==,>-%%<151<<<O-554,57,#>82:,89y3:#%::-;:;4=o*#",
"*OXOO++X oOOXXX+$O$=$;***$.O+OooOoO+OXO+OXX.XO$$&$",
"4*#*@%++44<<<<,$*qypy6q808@#%%%+Oo:1484454<$O;4451",
"q*$,::--gw77aad;;q4yq87q8q$<1<w1<$wtqeuetup<$8q555",
"q%-514<$5447e75%>8348888yq$,w<:1<+,eqqupped4+4pttt",
"e%;ew7<$5eqq775$,qqqqyqtyq*3w4w15+-epddgdgd4@7dftt",
"p-,ate<$uqeq7e7$4qpy45q734$<5115w@%75qppfd5<$4d5tt",
"4%%::,;O-:-:<,:X-*$->=$++$X#%%+@@OO%$-;>,383$-,:11",
"$OXooOO OOX..XoO+$+O+$;&*$$$X@%%%&&%$$$O#$-*..O+@@",
"+;41775ee0ee%O<<11<&%ttwwtt7%:hkdhghtrr1-X$;*$$%$$",
"+;e1744e54wt:$4<111&%7447755%;a6ttrrrrrt7$55<111t1",
"O@<477577wa7%$55517:%1w7twtt&&r6rrtrrrrr,$8<114111",
"O%w7eeeeeaee:+7w777:%wwrtwtt;%gtttsdttr64#4qwweww1",
"+-eewaeeaeae%+,<1qe,&ttq5rtt-%stgdrt7rrr:@1wett7t1",
"+@;14714e757+o141<1<$41:&;&,O@5tr1,,1rr1&O&:111111",
"oo@@%@%-%&@$X %%$@$@.oXO+++Ooo@+Oo@@%%%%O.oo@@++@$",
"14441<@ X+%;&$<<,:,1-O:5t777<,:-$o.oO%&&&%@Oo.o&<1",
"tdhhadt$%7aq70rtpq46q-7pptptqdpptr&&ttttt17t1@<ttt",
"1w7751a;%pa,,424442,q-1t7q777qqqrt&&r175511tt&<t11"
};
